<svg
            xmlns="http://www.w3.org/2000/svg"
            xmlns:xlink="http://www.w3.org/1999/xlink"
            viewBox="0 0 290 200"
            width="290"
            height="200"
            preserveAspectRatio="xMidYMid meet"
            style="width: 100%; height: 100%; transform: translate3d(0px, 0px, 0px); content-visibility: visible;"
          >
            <defs>
              <clipPath id="__lottie_element_2">
                <rect width="290" height="200" x="0" y="0"></rect>
              </clipPath>
              <symbol id="__lottie_element_24">
                <g>
                  <g
                    transform="matrix(1.4527000188827515,0,0,1.7852799892425537,141.39004516601562,79.83842468261719)"
                    opacity="1"
                    style="display: block;"
                  >
                    <g
                      opacity="1"
                      transform="matrix(1,0,0,1,2.484999895095825,46.68600082397461)"
                    >
                      <path
                        fill="rgb(224,46,46)"
                        fill-opacity="1"
                        d=" M0,-6.685500144958496 C11.581897735595703,-6.685500144958496 20.98550033569336,-3.689727544784546 20.98550033569336,0 C20.98550033569336,3.689727544784546 11.581897735595703,6.685500144958496 0,6.685500144958496 C-11.581897735595703,6.685500144958496 -20.98550033569336,3.689727544784546 -20.98550033569336,0 C-20.98550033569336,-3.689727544784546 -11.581897735595703,-6.685500144958496 0,-6.685500144958496z"
                      ></path>
                    </g>
                  </g>
                </g>
              </symbol>
              <mask id="__lottie_element_24_1" mask-type="alpha">
                <use xlink:href="#__lottie_element_24"></use>
              </mask>
              <clipPath id="__lottie_element_28">
                <path d="M0,0 L290,0 L290,200 L0,200z"></path>
              </clipPath>
              <clipPath id="__lottie_element_38">
                <path d="M0,0 L290,0 L290,200 L0,200z"></path>
              </clipPath>
              <clipPath id="__lottie_element_48">
                <path d="M0,0 L290,0 L290,200 L0,200z"></path>
              </clipPath>
            </defs>
            <g clip-path="url(#__lottie_element_2)">
              <g
                transform="matrix(1,0,0,1,0,0)"
                opacity="1"
                style="display: block;"
              >
                <rect width="290" height="200" fill="#ffffff"></rect>
              </g>
              <g
                transform="matrix(1,0,0,1,0,196)"
                opacity="1"
                style="display: block;"
              >
                <g opacity="1" transform="matrix(1,0,0,1,145,2)">
                  <path
                    fill="rgb(255,255,255)"
                    fill-opacity="1"
                    d=" M-143,-2 C-144.10499572753906,-2 -145,-1.1039999723434448 -145,0 C-145,1.1050000190734863 -144.10499572753906,2 -143,2 C-143,2 143,2 143,2 C144.10400390625,2 145,1.1050000190734863 145,0 C145,-1.1039999723434448 144.10400390625,-2 143,-2 C143,-2 -143,-2 -143,-2z"
                  ></path>
                </g>
              </g>
              <g
                transform="matrix(1,0,0,1,96.5,77.5)"
                opacity="1"
                style="display: block;"
              >
                <g
                  opacity="1"
                  transform="matrix(1,0,0,1,48.09400177001953,10.5)"
                >
                  <path
                    fill="rgb(204,208,213)"
                    fill-opacity="1"
                    d=" M-48.09400177001953,10.5 C-48.09400177001953,10.5 48.09400177001953,10.5 48.09400177001953,10.5 C48.09400177001953,10.5 48.09400177001953,-10.5 48.09400177001953,-10.5 C48.09400177001953,-10.5 -48.09400177001953,-10.5 -48.09400177001953,-10.5 C-48.09400177001953,-10.5 -48.09400177001953,10.5 -48.09400177001953,10.5z"
                  ></path>
                </g>
              </g>
              <g
                clip-path="url(#__lottie_element_28)"
                transform="matrix(1,0,0,1,0,0)"
                opacity="1"
                style="display: none;"
              >
                <g
                  fill="rgb(0,20,50)"
                  font-size="30"
                  font-family="SF Compact Display"
                  font-style="normal"
                  font-weight="700"
                  aria-label="Z"
                  transform="matrix(0.5037999153137207,0.1649981588125229,-0.1649981588125229,0.5037999153137207,153.71600341796875,45.27019119262695)"
                  opacity="0.0004405695765041173"
                  style="display: block;"
                >
                  <g
                    stroke-linecap="butt"
                    stroke-linejoin="round"
                    stroke-miterlimit="4"
                    transform="matrix(1,0,0,1,-17.520000457763672,0)"
                    opacity="1"
                    style="display: inherit;"
                  >
                    <g>
                      <g
                        transform="matrix(1,0,0,1,0,0)"
                        opacity="1"
                        style="display: block;"
                      >
                        <path d=" M1.23,0 C1.23,0 16.38,0 16.38,0 C16.38,0 16.38,-3.87 16.38,-3.87 C16.38,-3.87 7.08,-3.87 7.08,-3.87 C7.08,-3.87 7.08,-4.07 7.08,-4.07 C7.08,-4.07 16.07,-16.9 16.07,-16.9 C16.07,-16.9 16.07,-20 16.07,-20 C16.07,-20 1.42,-20 1.42,-20 C1.42,-20 1.42,-16.13 1.42,-16.13 C1.42,-16.13 10.25,-16.13 10.25,-16.13 C10.25,-16.13 10.25,-15.92 10.25,-15.92 C10.25,-15.92 1.23,-3.09 1.23,-3.09 C1.23,-3.09 1.23,0 1.23,0z"></path>
                        <g
                          opacity="1"
                          transform="matrix(0.30000001192092896,0,0,0.30000001192092896,0,0)"
                        ></g>
                      </g>
                    </g>
                  </g>
                </g>
              </g>
              <g
                clip-path="url(#__lottie_element_38)"
                transform="matrix(1.4655200242996216,0,0,1.4655200242996216,-87.50039672851562,-31.552001953125)"
                opacity="1"
                style="display: none;"
              >
                <g
                  fill="rgb(0,20,50)"
                  font-size="30"
                  font-family="SF Compact Display"
                  font-style="normal"
                  font-weight="700"
                  aria-label="Z"
                  transform="matrix(0.5042257905006409,0.1651376485824585,-0.1651376485824585,0.5042257905006409,153.71600341796875,45.339317321777344)"
                  opacity="0.0019463847563508808"
                  style="display: block;"
                >
                  <g
                    stroke-linecap="butt"
                    stroke-linejoin="round"
                    stroke-miterlimit="4"
                    transform="matrix(1,0,0,1,-17.520000457763672,0)"
                    opacity="1"
                    style="display: inherit;"
                  >
                    <g>
                      <g
                        transform="matrix(1,0,0,1,0,0)"
                        opacity="1"
                        style="display: block;"
                      >
                        <path d=" M1.23,0 C1.23,0 16.38,0 16.38,0 C16.38,0 16.38,-3.87 16.38,-3.87 C16.38,-3.87 7.08,-3.87 7.08,-3.87 C7.08,-3.87 7.08,-4.07 7.08,-4.07 C7.08,-4.07 16.07,-16.9 16.07,-16.9 C16.07,-16.9 16.07,-20 16.07,-20 C16.07,-20 1.42,-20 1.42,-20 C1.42,-20 1.42,-16.13 1.42,-16.13 C1.42,-16.13 10.25,-16.13 10.25,-16.13 C10.25,-16.13 10.25,-15.92 10.25,-15.92 C10.25,-15.92 1.23,-3.09 1.23,-3.09 C1.23,-3.09 1.23,0 1.23,0z"></path>
                        <g
                          opacity="1"
                          transform="matrix(0.30000001192092896,0,0,0.30000001192092896,0,0)"
                        ></g>
                      </g>
                    </g>
                  </g>
                </g>
              </g>
              <g
                clip-path="url(#__lottie_element_48)"
                transform="matrix(1.8344800472259521,0,0,1.8344800472259521,-105.99960327148438,-58.447998046875)"
                opacity="1"
                style="display: block;"
              >
                <g
                  fill="rgb(0,20,50)"
                  font-size="30"
                  font-family="SF Compact Display"
                  font-style="normal"
                  font-weight="700"
                  aria-label="Z"
                  transform="matrix(0.5042165517807007,0.16513462364673615,-0.16513462364673615,0.5042165517807007,153.71600341796875,45.33782196044922)"
                  opacity="0.0019137779324971405"
                  style="display: block;"
                >
                  <g
                    stroke-linecap="butt"
                    stroke-linejoin="round"
                    stroke-miterlimit="4"
                    transform="matrix(1,0,0,1,-17.520000457763672,0)"
                    opacity="1"
                    style="display: inherit;"
                  >
                    <g>
                      <g
                        transform="matrix(1,0,0,1,0,0)"
                        opacity="1"
                        style="display: block;"
                      >
                        <path d=" M1.23,0 C1.23,0 16.38,0 16.38,0 C16.38,0 16.38,-3.87 16.38,-3.87 C16.38,-3.87 7.08,-3.87 7.08,-3.87 C7.08,-3.87 7.08,-4.07 7.08,-4.07 C7.08,-4.07 16.07,-16.9 16.07,-16.9 C16.07,-16.9 16.07,-20 16.07,-20 C16.07,-20 1.42,-20 1.42,-20 C1.42,-20 1.42,-16.13 1.42,-16.13 C1.42,-16.13 10.25,-16.13 10.25,-16.13 C10.25,-16.13 10.25,-15.92 10.25,-15.92 C10.25,-15.92 1.23,-3.09 1.23,-3.09 C1.23,-3.09 1.23,0 1.23,0z"></path>
                        <g
                          opacity="1"
                          transform="matrix(0.30000001192092896,0,0,0.30000001192092896,0,0)"
                        ></g>
                      </g>
                    </g>
                  </g>
                </g>
              </g>
              <g
                transform="matrix(1,0,0,1,145,99.99999237060547)"
                opacity="1"
                style="display: block;"
              >
                <g
                  opacity="1"
                  transform="matrix(1,0,0,1,-0.1599999964237213,36.67599868774414)"
                >
                  <path
                    fill="rgb(255,255,255)"
                    fill-opacity="1"
                    d=" M52.84049987792969,-36.92649841308594 C52.84049987792969,-36.92649841308594 52.84049987792969,36.92649841308594 52.84049987792969,36.92649841308594 C52.84049987792969,36.92649841308594 -52.84049987792969,36.92649841308594 -52.84049987792969,36.92649841308594 C-52.84049987792969,36.92649841308594 -52.84049987792969,-36.92649841308594 -52.84049987792969,-36.92649841308594 C-52.84049987792969,-36.92649841308594 52.84049987792969,-36.92649841308594 52.84049987792969,-36.92649841308594z"
                  ></path>
                </g>
              </g>
              <g
                transform="matrix(1,0,0,1,85,76.5)"
                opacity="1"
                style="display: block;"
              >
                <g
                  opacity="1"
                  transform="matrix(1,0,0,1,59.974998474121094,60)"
                >
                  <path
                    fill="rgb(0,19,49)"
                    fill-opacity="1"
                    d=" M53.12699890136719,56.624000549316406 C53.12699890136719,56.624000549316406 -52.999000549316406,56.624000549316406 -52.999000549316406,56.624000549316406 C-55.43600082397461,56.624000549316406 -57.124000549316406,54 -56.56100082397461,51.5620002746582 C-56.56100082397461,51.5620002746582 -52.06100082397461,38.4370002746582 -52.06100082397461,38.4370002746582 C-52.06100082397461,38.4370002746582 52.00199890136719,38.4370002746582 52.00199890136719,38.4370002746582 C52.00199890136719,38.4370002746582 56.500999450683594,51.5620002746582 56.500999450683594,51.5620002746582 C57.250999450683594,54 55.56399917602539,56.624000549316406 53.12699890136719,56.624000549316406z M23.31399917602539,-35.625999450683594 C23.31399917602539,-35.625999450683594 51.625999450683594,-35.625999450683594 51.625999450683594,-35.625999450683594 C51.625999450683594,-35.625999450683594 51.625999450683594,35.0620002746582 51.625999450683594,35.0620002746582 C51.625999450683594,35.0620002746582 -51.499000549316406,35.0620002746582 -51.499000549316406,35.0620002746582 C-51.499000549316406,35.0620002746582 -51.499000549316406,-35.625999450683594 -51.499000549316406,-35.625999450683594 C-51.499000549316406,-35.625999450683594 -23.18600082397461,-35.625999450683594 -23.18600082397461,-35.625999450683594 C-23.18600082397461,-35.625999450683594 23.31399917602539,-35.625999450683594 23.31399917602539,-35.625999450683594z M-46.43600082397461,-54.9379997253418 C-46.43600082397461,-54.9379997253418 -36.499000549316406,-48.000999450683594 -36.499000549316406,-48.000999450683594 C-36.499000549316406,-48.000999450683594 -46.43600082397461,-42.750999450683594 -46.43600082397461,-42.750999450683594 C-46.43600082397461,-42.750999450683594 -46.43600082397461,-54.9379997253418 -46.43600082397461,-54.9379997253418z M46.56399917602539,-54.9379997253418 C46.56399917602539,-54.9379997253418 46.56399917602539,-42.750999450683594 46.56399917602539,-42.750999450683594 C46.56399917602539,-42.750999450683594 36.62699890136719,-48.000999450683594 36.62699890136719,-48.000999450683594 C36.62699890136719,-48.000999450683594 46.56399917602539,-54.9379997253418 46.56399917602539,-54.9379997253418z M42.81399917602539,-56.625999450683594 C42.81399917602539,-56.625999450683594 32.31399917602539,-49.125999450683594 32.31399917602539,-49.125999450683594 C31.18899917602539,-48.375999450683594 31.37700080871582,-46.875999450683594 32.50199890136719,-46.3129997253418 C32.50199890136719,-46.3129997253418 46.375999450683594,-39.000999450683594 46.375999450683594,-39.000999450683594 C46.375999450683594,-39.000999450683594 -46.249000549316406,-39.000999450683594 -46.249000549316406,-39.000999450683594 C-46.249000549316406,-39.000999450683594 -32.374000549316406,-46.3129997253418 -32.374000549316406,-46.3129997253418 C-31.249000549316406,-46.875999450683594 -31.06100082397461,-48.5629997253418 -32.18600082397461,-49.125999450683594 C-32.18600082397461,-49.125999450683594 -42.68600082397461,-56.625999450683594 -42.68600082397461,-56.625999450683594 C-42.68600082397461,-56.625999450683594 42.81399917602539,-56.625999450683594 42.81399917602539,-56.625999450683594z M59.68899917602539,50.4370002746582 C59.68899917602539,50.4370002746582 54.81399917602539,36.374000549316406 54.81399917602539,36.374000549316406 C54.81399917602539,36.374000549316406 54.81399917602539,-37.3129997253418 54.81399917602539,-37.3129997253418 C54.81399917602539,-38.0629997253418 54.43899917602539,-38.4379997253418 53.87699890136719,-38.8129997253418 C53.87699890136719,-38.8129997253418 49.750999450683594,-41.0629997253418 49.750999450683594,-41.0629997253418 C49.750999450683594,-41.0629997253418 49.750999450683594,-57.9379997253418 49.750999450683594,-57.9379997253418 C50.125999450683594,-59.0629997253418 49.18899917602539,-60.000999450683594 48.250999450683594,-60.000999450683594 C48.250999450683594,-60.000999450683594 -48.124000549316406,-60.000999450683594 -48.124000549316406,-60.000999450683594 C-49.06100082397461,-60.000999450683594 -49.999000549316406,-59.0629997253418 -49.81100082397461,-57.9379997253418 C-49.81100082397461,-57.9379997253418 -49.81100082397461,-41.0629997253418 -49.81100082397461,-41.0629997253418 C-50.56100082397461,-40.500999450683594 -54.31100082397461,-38.8129997253418 -54.68600082397461,-37.875999450683594 C-54.68600082397461,-37.6879997253418 -54.874000549316406,-37.3129997253418 -54.874000549316406,-37.125999450683594 C-54.874000549316406,-37.125999450683594 -54.874000549316406,36.5620002746582 -54.874000549316406,36.5620002746582 C-54.874000549316406,36.5620002746582 -59.749000549316406,50.624000549316406 -59.749000549316406,50.624000549316406 C-60.874000549316406,55.3120002746582 -57.68600082397461,60 -52.999000549316406,60 C-52.999000549316406,60 52.93899917602539,60 52.93899917602539,60 C57.625999450683594,60 61.000999450683594,55.499000549316406 59.68899917602539,50.4370002746582z"
                  ></path>
                </g>
                <g opacity="1" transform="matrix(1,0,0,1,60.03900146484375,60)">
                  <path
                    fill="rgb(0,19,49)"
                    fill-opacity="1"
                    d=" M-56.624000549316406,51.5620002746582 C-56.624000549316406,51.5620002746582 -52.124000549316406,38.4370002746582 -52.124000549316406,38.4370002746582 C-52.124000549316406,38.4370002746582 51.9379997253418,38.4370002746582 51.9379997253418,38.4370002746582 C51.9379997253418,38.4370002746582 56.4379997253418,51.5620002746582 56.4379997253418,51.5620002746582 C57.1879997253418,54 55.499000549316406,56.625 53.0620002746582,56.625 C53.0620002746582,56.625 -53.0620002746582,56.625 -53.0620002746582,56.625 C-55.499000549316406,56.625 -57.1870002746582,54 -56.624000549316406,51.5620002746582z M-51.5620002746582,-35.625 C-51.5620002746582,-35.625 -23.250999450683594,-35.625 -23.250999450683594,-35.625 C-23.250999450683594,-35.625 23.250999450683594,-35.625 23.250999450683594,-35.625 C23.250999450683594,-35.625 51.5620002746582,-35.625 51.5620002746582,-35.625 C51.5620002746582,-35.625 51.5620002746582,35.0620002746582 51.5620002746582,35.0620002746582 C51.5620002746582,35.0620002746582 -51.5620002746582,35.0620002746582 -51.5620002746582,35.0620002746582 C-51.5620002746582,35.0620002746582 -51.5620002746582,-35.625 -51.5620002746582,-35.625z M-46.499000549316406,-54.9379997253418 C-46.499000549316406,-54.9379997253418 -36.5620002746582,-48 -36.5620002746582,-48 C-36.5620002746582,-48 -46.499000549316406,-42.75 -46.499000549316406,-42.75 C-46.499000549316406,-42.75 -46.499000549316406,-54.9379997253418 -46.499000549316406,-54.9379997253418z M36.5620002746582,-48 C36.5620002746582,-48 46.5,-54.9379997253418 46.5,-54.9379997253418 C46.5,-54.9379997253418 46.5,-42.75 46.5,-42.75 C46.5,-42.75 36.5620002746582,-48 36.5620002746582,-48z M-32.4379997253418,-46.3129997253418 C-31.312999725341797,-46.875 -31.125999450683594,-48.5629997253418 -32.250999450683594,-49.125 C-32.250999450683594,-49.125 -42.750999450683594,-56.625999450683594 -42.750999450683594,-56.625999450683594 C-42.750999450683594,-56.625999450683594 42.749000549316406,-56.625999450683594 42.749000549316406,-56.625999450683594 C42.749000549316406,-56.625999450683594 32.250999450683594,-49.125 32.250999450683594,-49.125 C31.125999450683594,-48.375 31.312999725341797,-46.875 32.4379997253418,-46.3129997253418 C32.4379997253418,-46.3129997253418 46.3120002746582,-39 46.3120002746582,-39 C46.3120002746582,-39 -46.3120002746582,-39 -46.3120002746582,-39 C-46.3120002746582,-39 -32.4379997253418,-46.3129997253418 -32.4379997253418,-46.3129997253418z M-48.236000061035156,-60 C-49.15700149536133,-59.96799850463867 -50.058998107910156,-59.042999267578125 -49.874000549316406,-57.9379997253418 C-49.874000549316406,-57.9379997253418 -49.874000549316406,-41.0629997253418 -49.874000549316406,-41.0629997253418 C-50.625,-40.5 -54.375,-38.8129997253418 -54.750999450683594,-37.875 C-54.750999450683594,-37.6879997253418 -54.9379997253418,-37.3129997253418 -54.9379997253418,-37.125 C-54.9379997253418,-37.125 -54.9379997253418,36.5620002746582 -54.9379997253418,36.5620002746582 C-54.9379997253418,36.5620002746582 -59.8120002746582,50.625 -59.8120002746582,50.625 C-60.9370002746582,55.3120002746582 -57.749000549316406,60 -53.0620002746582,60 C-53.0620002746582,60 52.874000549316406,60 52.874000549316406,60 C57.5620002746582,60 60.9370002746582,55.5 59.624000549316406,50.4370002746582 C59.624000549316406,50.4370002746582 54.750999450683594,36.375 54.750999450683594,36.375 C54.750999450683594,36.375 54.750999450683594,-37.3129997253418 54.750999450683594,-37.3129997253418 C54.750999450683594,-38.0629997253418 54.374000549316406,-38.4379997253418 53.8120002746582,-38.8129997253418 C53.8120002746582,-38.8129997253418 49.6879997253418,-41.0629997253418 49.6879997253418,-41.0629997253418 C49.6879997253418,-41.0629997253418 49.6879997253418,-57.9379997253418 49.6879997253418,-57.9379997253418 C50.055999755859375,-59.042999267578125 49.15700149536133,-59.96799850463867 48.236000061035156,-60 C48.236000061035156,-60 -48.236000061035156,-60 -48.236000061035156,-60z"
                  ></path>
                </g>
                <g
                  opacity="1"
                  transform="matrix(1,0,0,1,59.974998474121094,37.75899887084961)"
                >
                  <path
                    fill="rgb(0,19,49)"
                    fill-opacity="1"
                    d=" M18.358999252319336,-14.649999618530273 C15.998000144958496,-0.15700000524520874 8.364999771118164,10.649999618530273 0.0010000000474974513,10.649999618530273 C-8.36400032043457,10.649999618530273 -15.996999740600586,-0.15700000524520874 -18.358999252319336,-14.649999618530273 C-18.358999252319336,-14.649999618530273 -22.4060001373291,-14.649999618530273 -22.4060001373291,-14.649999618530273 C-19.871999740600586,2.187000036239624 -10.805999755859375,14.649999618530273 0.0010000000474974513,14.649999618530273 C10.807000160217285,14.649999618530273 19.87299919128418,2.187000036239624 22.4060001373291,-14.649999618530273 C22.4060001373291,-14.649999618530273 18.358999252319336,-14.649999618530273 18.358999252319336,-14.649999618530273z"
                  ></path>
                </g>
                <g
                  opacity="1"
                  transform="matrix(1,0,0,1,39.974998474121094,107.01000213623047)"
                >
                  <path
                    fill="rgb(0,19,49)"
                    fill-opacity="1"
                    d=" M-2.5299999713897705,2.5309998989105225 C-2.5299999713897705,2.5309998989105225 2.5299999713897705,2.5309998989105225 2.5299999713897705,2.5309998989105225 C2.5299999713897705,2.5309998989105225 2.5299999713897705,-2.5309998989105225 2.5299999713897705,-2.5309998989105225 C2.5299999713897705,-2.5309998989105225 -2.5299999713897705,-2.5309998989105225 -2.5299999713897705,-2.5309998989105225 C-2.5299999713897705,-2.5309998989105225 -2.5299999713897705,2.5309998989105225 -2.5299999713897705,2.5309998989105225z"
                  ></path>
                </g>
                <g
                  opacity="1"
                  transform="matrix(1,0,0,1,59.974998474121094,107.01000213623047)"
                >
                  <path
                    fill="rgb(0,19,49)"
                    fill-opacity="1"
                    d=" M-2.5299999713897705,2.5309998989105225 C-2.5299999713897705,2.5309998989105225 2.5299999713897705,2.5309998989105225 2.5299999713897705,2.5309998989105225 C2.5299999713897705,2.5309998989105225 2.5299999713897705,-2.5309998989105225 2.5299999713897705,-2.5309998989105225 C2.5299999713897705,-2.5309998989105225 -2.5299999713897705,-2.5309998989105225 -2.5299999713897705,-2.5309998989105225 C-2.5299999713897705,-2.5309998989105225 -2.5299999713897705,2.5309998989105225 -2.5299999713897705,2.5309998989105225z"
                  ></path>
                </g>
                <g
                  opacity="1"
                  transform="matrix(1,0,0,1,79.9749984741211,107.01000213623047)"
                >
                  <path
                    fill="rgb(0,19,49)"
                    fill-opacity="1"
                    d=" M-2.5309998989105225,2.5309998989105225 C-2.5309998989105225,2.5309998989105225 2.5309998989105225,2.5309998989105225 2.5309998989105225,2.5309998989105225 C2.5309998989105225,2.5309998989105225 2.5309998989105225,-2.5309998989105225 2.5309998989105225,-2.5309998989105225 C2.5309998989105225,-2.5309998989105225 -2.5309998989105225,-2.5309998989105225 -2.5309998989105225,-2.5309998989105225 C-2.5309998989105225,-2.5309998989105225 -2.5309998989105225,2.5309998989105225 -2.5309998989105225,2.5309998989105225z"
                  ></path>
                </g>
              </g>
              <g
                transform="matrix(0.6000000238418579,0,0,0.6000000238418579,144.12100219726562,122.17880249023438)"
                opacity="1"
                style="display: block;"
              >
                <g
                  opacity="1"
                  transform="matrix(1,0,0,1,7.465000152587891,44.46500015258789)"
                >
                  <path
                    fill="rgb(0,20,50)"
                    fill-opacity="1"
                    d=" M-6,-11.46500015258789 C-11.779999732971191,-11.46500015258789 -16.46500015258789,-6.78000020980835 -16.46500015258789,-1 C-16.46500015258789,4.78000020980835 -11.779999732971191,9.46500015258789 -6,9.46500015258789 C-0.2199999988079071,9.46500015258789 4.465000152587891,4.78000020980835 4.465000152587891,-1 C4.465000152587891,-6.78000020980835 -0.2199999988079071,-11.46500015258789 -6,-11.46500015258789z"
                  ></path>
                </g>
              </g>
              <g mask="url(#__lottie_element_24_1)" style="display: block;">
                <g
                  transform="matrix(0.6000000238418579,0,0,0.6000000238418579,144.12100219726562,122.17880249023438)"
                  opacity="1"
                >
                  <g
                    opacity="1"
                    transform="matrix(1,0,0,1,7.465000152587891,44.46500015258789)"
                  >
                    <path
                      fill="rgb(236,124,136)"
                      fill-opacity="1"
                      d=" M-6,-11.46500015258789 C-11.779999732971191,-11.46500015258789 -16.46500015258789,-6.78000020980835 -16.46500015258789,-1 C-16.46500015258789,4.78000020980835 -11.779999732971191,9.46500015258789 -6,9.46500015258789 C-0.2199999988079071,9.46500015258789 4.465000152587891,4.78000020980835 4.465000152587891,-1 C4.465000152587891,-6.78000020980835 -0.2199999988079071,-11.46500015258789 -6,-11.46500015258789z"
                    ></path>
                  </g>
                </g>
              </g>
            </g>
          </svg>