  <svg
          xmlns="http://www.w3.org/2000/svg"
          xmlns:xlink="http://www.w3.org/1999/xlink"
          viewBox="0 0 426 290"
          width="426"
          height="290"
          preserveAspectRatio="xMidYMid meet"
          style="width: 100%; height: 100%; transform: translate3d(0px, 0px, 0px); content-visibility: visible;"
        >
          <defs>
            <clipPath id="__lottie_element_2">
              <rect width="426" height="290" x="0" y="0"></rect>
            </clipPath>
            <clipPath id="__lottie_element_4">
              <path d="M0,0 L426,0 L426,290 L0,290z"></path>
            </clipPath>
            <clipPath id="__lottie_element_8">
              <path d="M0,0 L426,0 L426,290 L0,290z"></path>
            </clipPath>
            <clipPath id="__lottie_element_12">
              <path d="M0,0 L426,0 L426,290 L0,290z"></path>
            </clipPath>
            <clipPath id="__lottie_element_40">
              <path d="M0,0 L426,0 L426,290 L0,290z"></path>
            </clipPath>
            <linearGradient
              id="__lottie_element_55"
              spreadMethod="pad"
              gradientUnits="userSpaceOnUse"
              x1="0.01899999938905239"
              y1="-9.236000061035156"
              x2="10.208000183105469"
              y2="19"
            >
              <stop offset="0%" stop-color="rgb(204,251,255)"></stop>
              <stop offset="50%" stop-color="rgb(116,234,255)"></stop>
              <stop offset="100%" stop-color="rgb(0,196,255)"></stop>
            </linearGradient>
          </defs>
          <g clip-path="url(#__lottie_element_2)">
            <g
              clip-path="url(#__lottie_element_4)"
              transform="matrix(0.8999999761581421,0,0,0.8999999761581421,21.100006103515625,29.100006103515625)"
              opacity="1"
              style="display: block;"
            >
              <g
                transform="matrix(1,0,0,1,8,115)"
                opacity="1"
                style="display: block;"
              >
                <g opacity="1" transform="matrix(1,0,0,1,0,0)">
                  <path
                    fill="rgb(255,108,0)"
                    fill-opacity="1"
                    d=" M0,-8 C4.415200233459473,-8 8,-4.415200233459473 8,0 C8,4.415200233459473 4.415200233459473,8 0,8 C-4.415200233459473,8 -8,4.415200233459473 -8,0 C-8,-4.415200233459473 -4.415200233459473,-8 0,-8z"
                  ></path>
                </g>
              </g>
              <g
                transform="matrix(1,0,0,1,376,179)"
                opacity="1"
                style="display: block;"
              >
                <g opacity="1" transform="matrix(1,0,0,1,0,0)">
                  <path
                    fill="rgb(255,0,0)"
                    fill-opacity="1"
                    d=" M0,-8 C4.415200233459473,-8 8,-4.415200233459473 8,0 C8,4.415200233459473 4.415200233459473,8 0,8 C-4.415200233459473,8 -8,4.415200233459473 -8,0 C-8,-4.415200233459473 -4.415200233459473,-8 0,-8z"
                  ></path>
                </g>
              </g>
              <g
                transform="matrix(1,0,0,1,306,9)"
                opacity="1"
                style="display: block;"
              >
                <g opacity="1" transform="matrix(1,0,0,1,0,0)">
                  <path
                    stroke-linecap="butt"
                    stroke-linejoin="miter"
                    fill-opacity="0"
                    stroke-miterlimit="4"
                    stroke="rgb(0,188,255)"
                    stroke-opacity="1"
                    stroke-width="2"
                    d=" M0,-8 C4.415200233459473,-8 8,-4.415200233459473 8,0 C8,4.415200233459473 4.415200233459473,8 0,8 C-4.415200233459473,8 -8,4.415200233459473 -8,0 C-8,-4.415200233459473 -4.415200233459473,-8 0,-8z"
                  ></path>
                </g>
              </g>
            </g>
            <g
              clip-path="url(#__lottie_element_8)"
              transform="matrix(0.8999999761581421,0,0,0.8999999761581421,21.300003051757812,28.899993896484375)"
              opacity="1"
              style="display: block;"
            >
              <g
                transform="matrix(-0.5418123006820679,-0.8404995203018188,0.8404995203018188,-0.5418123006820679,70,33)"
                opacity="1"
                style="display: block;"
              >
                <g opacity="1" transform="matrix(1,0,0,1,0,0)">
                  <path
                    stroke-linecap="butt"
                    stroke-linejoin="miter"
                    fill-opacity="0"
                    stroke-miterlimit="4"
                    stroke="rgb(255,244,0)"
                    stroke-opacity="1"
                    stroke-width="2"
                    d=" M0,-12 C6.622799873352051,-12 12,-6.622799873352051 12,0 C12,6.622799873352051 6.622799873352051,12 0,12 C-6.622799873352051,12 -12,6.622799873352051 -12,0 C-12,-6.622799873352051 -6.622799873352051,-12 0,-12z"
                  ></path>
                </g>
              </g>
              <g
                transform="matrix(-0.5740318298339844,-0.8188329935073853,0.8188329935073853,-0.5740318298339844,31,196)"
                opacity="1"
                style="display: block;"
              >
                <g opacity="1" transform="matrix(1,0,0,1,0,0)">
                  <path
                    fill="rgb(255,0,229)"
                    fill-opacity="1"
                    d=" M1,-9 C1,-9 1,9 1,9 C1,9 -1,9 -1,9 C-1,9 -1,-9 -1,-9 C-1,-9 1,-9 1,-9z M8,-1 C8,-1 8,1 8,1 C8,1 -8,1 -8,1 C-8,1 -8,-1 -8,-1 C-8,-1 8,-1 8,-1z"
                  ></path>
                </g>
              </g>
              <g
                transform="matrix(-0.9978992938995361,-0.06478425115346909,0.06478425115346909,-0.9978992938995361,418,107)"
                opacity="1"
                style="display: block;"
              >
                <g opacity="1" transform="matrix(1,0,0,1,0,0)">
                  <path
                    fill="rgb(44,0,255)"
                    fill-opacity="1"
                    d=" M1,-9 C1,-9 1,9 1,9 C1,9 -1,9 -1,9 C-1,9 -1,-9 -1,-9 C-1,-9 1,-9 1,-9z M8,-1 C8,-1 8,1 8,1 C8,1 -8,1 -8,1 C-8,1 -8,-1 -8,-1 C-8,-1 8,-1 8,-1z"
                  ></path>
                </g>
              </g>
              <g
                transform="matrix(-0.7687081098556519,-0.6395998001098633,0.6395998001098633,-0.7687081098556519,208,27)"
                opacity="1"
                style="display: block;"
              >
                <g opacity="1" transform="matrix(1,0,0,1,0,0)">
                  <path
                    fill="rgb(0,255,62)"
                    fill-opacity="1"
                    d=" M1,-9 C1,-9 1,9 1,9 C1,9 -1,9 -1,9 C-1,9 -1,-9 -1,-9 C-1,-9 1,-9 1,-9z M8,-1 C8,-1 8,1 8,1 C8,1 -8,1 -8,1 C-8,1 -8,-1 -8,-1 C-8,-1 8,-1 8,-1z"
                  ></path>
                </g>
              </g>
            </g>
            <g
              clip-path="url(#__lottie_element_12)"
              transform="matrix(1,0,0,1,0,0.8570404052734375)"
              opacity="1"
              style="display: block;"
            >
              <g
                clip-path="url(#__lottie_element_40)"
                transform="matrix(1,0,0,1,0,0)"
                opacity="1"
                style="display: block;"
              >
                <g
                  transform="matrix(0.9961947202682495,-0.08715574443340302,0.08715574443340302,0.9961947202682495,238.93299865722656,197.25)"
                  opacity="1"
                  style="display: block;"
                >
                  <g
                    opacity="1"
                    transform="matrix(0.7660444378852844,-0.6427876353263855,0.6427876353263855,0.7660444378852844,0,0)"
                  >
                    <path
                      fill="rgb(215,215,215)"
                      fill-opacity="1"
                      d=" M12.222999572753906,-22.35099983215332 C12.222999572753906,-22.35099983215332 12.222999572753906,22.35099983215332 12.222999572753906,22.35099983215332 C12.222999572753906,22.35099983215332 -12.222999572753906,22.35099983215332 -12.222999572753906,22.35099983215332 C-12.222999572753906,22.35099983215332 -12.222999572753906,-22.35099983215332 -12.222999572753906,-22.35099983215332 C-12.222999572753906,-22.35099983215332 12.222999572753906,-22.35099983215332 12.222999572753906,-22.35099983215332z"
                    ></path>
                  </g>
                </g>
                <g
                  transform="matrix(0.9961947202682495,-0.08715574443340302,0.08715574443340302,0.9961947202682495,268.02398681640625,226.9409942626953)"
                  opacity="1"
                  style="display: block;"
                >
                  <g
                    opacity="1"
                    transform="matrix(0.7660444378852844,-0.6427876353263855,0.6427876353263855,0.7660444378852844,0,0)"
                  >
                    <path
                      fill="rgb(107,189,240)"
                      fill-opacity="1"
                      d=" M21.047000885009766,-27.253501892089844 C21.047000885009766,-27.253501892089844 21.047000885009766,27.253501892089844 21.047000885009766,27.253501892089844 C21.047000885009766,32.77250289916992 16.56599998474121,37.253501892089844 11.047000885009766,37.253501892089844 C11.047000885009766,37.253501892089844 -11.047000885009766,37.253501892089844 -11.047000885009766,37.253501892089844 C-16.56599998474121,37.253501892089844 -21.047000885009766,32.77250289916992 -21.047000885009766,27.253501892089844 C-21.047000885009766,27.253501892089844 -21.047000885009766,-27.253501892089844 -21.047000885009766,-27.253501892089844 C-21.047000885009766,-32.77250289916992 -16.56599998474121,-37.253501892089844 -11.047000885009766,-37.253501892089844 C-11.047000885009766,-37.253501892089844 11.047000885009766,-37.253501892089844 11.047000885009766,-37.253501892089844 C16.56599998474121,-37.253501892089844 21.047000885009766,-32.77250289916992 21.047000885009766,-27.253501892089844z"
                    ></path>
                  </g>
                </g>
                <g
                  transform="matrix(0.9961947202682495,-0.08715574443340302,0.08715574443340302,0.9961947202682495,192.01300048828125,142.22300720214844)"
                  opacity="1"
                  style="display: block;"
                >
                  <g opacity="1" transform="matrix(1,0,0,1,0,0)">
                    <path
                      fill="rgb(211,211,211)"
                      fill-opacity="1"
                      d=" M40.72700119018555,48.8120002746582 C67.53700256347656,26.191999435424805 71.0270004272461,-13.998000144958496 48.5369987487793,-40.95800018310547 C26.047000885009766,-67.91799926757812 -13.92300033569336,-71.4280014038086 -40.722999572753906,-48.80799865722656 C-67.53299713134766,-26.187999725341797 -71.03299713134766,14.001999855041504 -48.53300094604492,40.95199966430664 C-26.042999267578125,67.91200256347656 13.916999816894531,71.43199920654297 40.72700119018555,48.8120002746582z"
                    ></path>
                  </g>
                </g>
                <g
                  transform="matrix(0.9961947202682495,-0.08715574443340302,0.08715574443340302,0.9961947202682495,190.1060028076172,142.2220001220703)"
                  opacity="1"
                  style="display: block;"
                >
                  <g
                    opacity="1"
                    transform="matrix(0.7660444378852844,-0.6427876353263855,0.6427876353263855,0.7660444378852844,0,0)"
                  >
                    <path
                      fill="rgb(255,255,255)"
                      fill-opacity="1"
                      d=" M0,-50.045501708984375 C27.593345642089844,-50.045501708984375 49.99700164794922,-27.6201114654541 49.99700164794922,0 C49.99700164794922,27.6201114654541 27.593345642089844,50.045501708984375 0,50.045501708984375 C-27.593345642089844,50.045501708984375 -49.99700164794922,27.6201114654541 -49.99700164794922,0 C-49.99700164794922,-27.6201114654541 -27.593345642089844,-50.045501708984375 0,-50.045501708984375z"
                    ></path>
                  </g>
                </g>
                <g
                  transform="matrix(1,0,0,1,213,145)"
                  opacity="1"
                  style="display: block;"
                >
                  <g opacity="1" transform="matrix(1,0,0,1,0,0)">
                    <path
                      stroke-linecap="butt"
                      stroke-linejoin="miter"
                      fill-opacity="0"
                      stroke-miterlimit="4"
                      stroke="rgb(111,127,144)"
                      stroke-opacity="1"
                      stroke-width="2"
                      d="M0 0"
                    ></path>
                  </g>
                </g>
              </g>
              <g
                transform="matrix(1.0499999523162842,0,0,1.0499999523162842,175.54464721679688,137.0856475830078)"
                opacity="0.92"
                style="display: block;"
              >
                <g opacity="1" transform="matrix(1,0,0,1,0,0)">
                  <path
                    fill="rgb(0,0,0)"
                    fill-opacity="1"
                    d=" M0,-8.067500114440918 C2.3361926078796387,-8.067500114440918 4.232999801635742,-4.452453136444092 4.232999801635742,0 C4.232999801635742,4.452453136444092 2.3361926078796387,8.067500114440918 0,8.067500114440918 C-2.3361926078796387,8.067500114440918 -4.232999801635742,4.452453136444092 -4.232999801635742,0 C-4.232999801635742,-4.452453136444092 -2.3361926078796387,-8.067500114440918 0,-8.067500114440918z"
                  ></path>
                </g>
              </g>
              <g
                transform="matrix(1.0499999523162842,0,0,1.0499999523162842,203.58279418945312,137.0856475830078)"
                opacity="0.92"
                style="display: block;"
              >
                <g opacity="1" transform="matrix(1,0,0,1,0,0)">
                  <path
                    fill="rgb(0,0,0)"
                    fill-opacity="1"
                    d=" M0,-8.067500114440918 C2.3361926078796387,-8.067500114440918 4.232999801635742,-4.452453136444092 4.232999801635742,0 C4.232999801635742,4.452453136444092 2.3361926078796387,8.067500114440918 0,8.067500114440918 C-2.3361926078796387,8.067500114440918 -4.232999801635742,4.452453136444092 -4.232999801635742,0 C-4.232999801635742,-4.452453136444092 -2.3361926078796387,-8.067500114440918 0,-8.067500114440918z"
                  ></path>
                </g>
              </g>
              <g
                transform="matrix(1,0,0,1,248,123.58499908447266)"
                opacity="1"
                style="display: block;"
              >
                <g opacity="1" transform="matrix(1,0,0,1,0,0)">
                  <path
                    fill="url(#__lottie_element_55)"
                    fill-opacity="1"
                    d=" M0,19 C9.9399995803833,19 18,13.109999656677246 18,5.840000152587891 C18,-1.4299999475479126 0,-19 0,-19 C0,-19 -18,-1.4299999475479126 -18,5.840000152587891 C-18,13.109999656677246 -9.9399995803833,19 0,19z"
                  ></path>
                </g>
              </g>
              <g
                transform="matrix(1.0499999523162842,0,0,1.0499999523162842,211,149)"
                opacity="1"
                style="display: block;"
              >
                <g opacity="1" transform="matrix(1,0,0,1,0,0)">
                  <path
                    fill="rgb(115,130,148)"
                    fill-opacity="1"
                    d=" M-10,12.25 C-23.024999618530273,5.73799991607666 -33.46500015258789,12.996999740600586 -31.75,12.625 C-24.25,11 -9.5,12.5 -10,12.25z"
                  ></path>
                </g>
              </g>
            </g>
            <g
              transform="matrix(0.6657183766365051,0,0,1,191,145)"
              opacity="1"
              style="display: block;"
            >
              <g
                opacity="1"
                transform="matrix(1,0,0,1,-9.651000022888184,124.81500244140625)"
              >
                <path
                  fill="rgb(216,219,223)"
                  fill-opacity="1"
                  d=" M0,-3.315500020980835 C15.645536422729492,-3.315500020980835 28.348499298095703,-1.829824447631836 28.348499298095703,0 C28.348499298095703,1.829824447631836 15.645536422729492,3.315500020980835 0,3.315500020980835 C-15.645536422729492,3.315500020980835 -28.348499298095703,1.829824447631836 -28.348499298095703,0 C-28.348499298095703,-1.829824447631836 -15.645536422729492,-3.315500020980835 0,-3.315500020980835z"
                ></path>
              </g>
            </g>
          </g>
        </svg>