<?xml version="1.0" encoding="utf-8"?>
<!-- Generator: Adobe Illustrator 25.1.0, SVG Export Plug-In . SVG Version: 6.00 Build 0)  -->
<svg version="1.1" id="Capa_1" xmlns="http://www.w3.org/2000/svg" xmlns:xlink="http://www.w3.org/1999/xlink" x="0px" y="0px"
	 viewBox="0 0 595.28 595.28" style="enable-background:new 0 0 595.28 595.28;" xml:space="preserve">
<style type="text/css">
	.st0{fill:url(#SVGID_1_);}
	.st1{fill:#FBC69A;}
	.st2{fill:#E6AC84;}
	.st3{fill:#2B2B38;}
	.st4{fill:#454559;}
	.st5{fill:#FFFFFF;}
	.st6{fill:#66667F;}
	.st7{fill:#F0F1F1;}
	.st8{fill:#6C6E70;}
	.st9{fill:#929597;}
	.st10{fill:#D0D2D3;}
	.st11{fill:#403F41;}
	.st12{fill:#221F1F;}
</style>
<radialGradient id="SVGID_1_" cx="297.5352" cy="298.5383" r="297.789" gradientTransform="matrix(0.9995 0 0 0.9995 0.2537 -0.7489)" gradientUnits="userSpaceOnUse">
	<stop  offset="0" style="stop-color:#16AEB1"/>
	<stop  offset="0.4187" style="stop-color:#15ACAF"/>
	<stop  offset="0.6591" style="stop-color:#10A5A6"/>
	<stop  offset="0.8537" style="stop-color:#099A98"/>
	<stop  offset="1" style="stop-color:#008C88"/>
</radialGradient>
<rect class="st0" width="595.28" height="595.28"/>
<g>
	<g>
		<path class="st1" d="M432.54,212.37l-93.84,44.92c5.18,8.78,11.23,17,16.84,25.5l88.84-42.52c6.02-3.28,18.39-11.31,13.42-21.74
			C451.55,205.4,439.62,208.98,432.54,212.37z"/>
		<path class="st1" d="M423.72,181.73l-89.91,41.94c-5.97,3.23-20.98,12.23-12.91,26.59c6.64,11.81,18.47,8.9,25.69,5.73
			l91.04-42.47c5.98-3.21,20.99-12.22,12.93-26.58C443.56,174.49,430.77,178.41,423.72,181.73z"/>
		<path class="st1" d="M403.64,157.29l-89.91,41.95c-5.97,3.22-20.99,12.23-12.91,26.59c6.64,11.81,18.47,8.9,25.69,5.74
			l91.03-42.47c5.98-3.21,20.99-12.22,12.93-26.58C423.47,150.05,410.69,153.97,403.64,157.29z"/>
		<path class="st1" d="M381.25,136.8l-69.41,32.14c-5.97,3.22-20.99,12.23-12.91,26.59c6.64,11.81,18.47,8.9,25.69,5.74l70.54-32.66
			c5.98-3.21,20.99-12.22,12.93-26.58C401.08,129.56,388.29,133.48,381.25,136.8z"/>
		<path class="st1" d="M428.21,268.83c-15.26-10.2-56.29-6.87-56.29-6.87l-47.6-98.63c0,0-24.45,11.33-36.15,16.92
			c-11.7,5.6-16.6,25.46-16.6,25.46l-96.25,45.98l38.83,81.2l99.67-47.61c0,0,11.75,7.02,24.27,8.14
			c12.53,1.12,23.19,0.27,23.19,0.27s77.6-2.31,81.88-2.95C447.44,290.11,440.76,277.21,428.21,268.83z"/>
		<polygon class="st2" points="224.33,278.09 243.08,319.08 276.3,303.22 263.71,258.8 		"/>
	</g>
	
		<rect x="261.91" y="254.28" transform="matrix(0.9024 -0.4309 0.4309 0.9024 -92.9165 147.6245)" class="st3" width="35" height="49.28"/>
	
		<rect x="240.61" y="209.42" transform="matrix(0.9024 -0.4309 0.4309 0.9024 -75.7703 134.0841)" class="st3" width="35" height="49.78"/>
	<g>
		<path class="st4" d="M256.55,228.39c-15.22,7.27-21.66,25.49-14.4,40.7c7.26,15.21,25.49,21.66,40.7,14.4
			c15.22-7.27,21.66-25.49,14.4-40.7C289.99,227.57,271.77,221.12,256.55,228.39z"/>
		<path class="st5" d="M258.75,232.99c-12.68,6.05-18.04,21.23-11.99,33.91c6.05,12.67,21.23,18.04,33.91,11.99
			c12.67-6.05,18.04-21.23,11.99-33.91C286.61,232.3,271.42,226.93,258.75,232.99z"/>
		<g>
			<path class="st6" d="M256.55,228.39c-15.22,7.27-21.66,25.49-14.4,40.7l4.6-2.2c-6.05-12.68-0.68-27.86,11.99-33.91
				c12.68-6.05,27.86-0.68,33.91,11.99l4.6-2.19C289.99,227.57,271.77,221.12,256.55,228.39z"/>
			<path class="st7" d="M246.78,266.88c6.05,12.68,21.23,18.04,33.91,11.99c12.68-6.05,18.05-21.23,11.99-33.91L246.78,266.88z"/>
		</g>
		<path class="st8" d="M278.45,271.6c-0.23-0.49-0.82-0.7-1.32-0.46l-0.28,0.13c-0.49,0.24-0.7,0.82-0.46,1.31l1.68,3.53
			c0.24,0.49,0.83,0.7,1.32,0.47l0.28-0.13c0.49-0.24,0.7-0.83,0.47-1.32L278.45,271.6z"/>
		<path class="st8" d="M261.34,235.75c-0.23-0.49-0.83-0.7-1.32-0.46l-0.28,0.13c-0.49,0.23-0.7,0.82-0.46,1.32l1.69,3.53
			c0.24,0.49,0.82,0.7,1.32,0.46l0.28-0.13c0.49-0.23,0.7-0.82,0.47-1.31L261.34,235.75z"/>
		<path class="st8" d="M290.22,245.97c-0.24-0.49-0.82-0.7-1.31-0.46l-3.54,1.69c-0.49,0.23-0.7,0.82-0.46,1.32l0.13,0.28
			c0.23,0.49,0.82,0.7,1.32,0.46l3.53-1.69c0.49-0.23,0.7-0.82,0.46-1.31L290.22,245.97z"/>
		<path class="st9" d="M291.85,257.16l-2.54-0.2c-0.36-0.03-0.66,0.15-0.67,0.39l-0.01,0.14c-0.02,0.24,0.25,0.46,0.61,0.49
			l2.54,0.2c0.35,0.03,0.66-0.15,0.68-0.39l0.01-0.14C292.47,257.4,292.2,257.19,291.85,257.16z"/>
		<path class="st9" d="M288.27,268.06l-2.1-1.44c-0.29-0.2-0.64-0.2-0.78,0l-0.08,0.12c-0.14,0.2-0.01,0.53,0.28,0.73l2.1,1.44
			c0.29,0.2,0.64,0.2,0.78,0l0.08-0.12C288.69,268.59,288.56,268.26,288.27,268.06z"/>
		<path class="st9" d="M268.29,274.86l-0.14-0.01c-0.24-0.02-0.46,0.25-0.49,0.61l-0.2,2.54c-0.03,0.35,0.15,0.66,0.39,0.67
			l0.14,0.01c0.24,0.02,0.46-0.25,0.49-0.61l0.2-2.54C268.71,275.18,268.54,274.88,268.29,274.86z"/>
		<path class="st9" d="M258.91,271.54c-0.2-0.14-0.53-0.01-0.73,0.28l-1.44,2.1c-0.2,0.29-0.2,0.64,0,0.78l0.11,0.08
			c0.2,0.14,0.53,0.01,0.73-0.28l1.44-2.1c0.2-0.29,0.2-0.64,0-0.78L258.91,271.54z"/>
		<path class="st9" d="M250.19,253.9l-2.54-0.2c-0.35-0.03-0.65,0.15-0.67,0.39l-0.01,0.14c-0.02,0.24,0.25,0.46,0.61,0.49l2.54,0.2
			c0.35,0.03,0.66-0.15,0.68-0.39l0.01-0.14C250.81,254.14,250.54,253.92,250.19,253.9z"/>
		<path class="st9" d="M253.82,244.41l-2.1-1.44c-0.29-0.2-0.64-0.2-0.78,0l-0.08,0.11c-0.14,0.2-0.01,0.52,0.28,0.73l2.1,1.44
			c0.29,0.2,0.64,0.2,0.78,0l0.08-0.12C254.24,244.94,254.12,244.61,253.82,244.41z"/>
		<path class="st9" d="M271.56,233.2l-0.14-0.01c-0.24-0.02-0.46,0.25-0.49,0.61l-0.2,2.54c-0.03,0.35,0.15,0.65,0.39,0.68
			l0.14,0.01c0.24,0.02,0.46-0.25,0.49-0.6l0.2-2.54C271.97,233.52,271.8,233.22,271.56,233.2z"/>
		<path class="st9" d="M282.56,237.09c-0.2-0.14-0.53-0.01-0.73,0.28l-1.44,2.1c-0.2,0.29-0.2,0.64,0,0.78l0.12,0.08
			c0.2,0.14,0.53,0.01,0.73-0.28l1.44-2.1c0.2-0.29,0.2-0.64,0-0.78L282.56,237.09z"/>
		<path class="st8" d="M254.37,263.08c-0.24-0.49-0.82-0.7-1.32-0.46l-3.53,1.69c-0.49,0.23-0.7,0.82-0.47,1.31l0.14,0.28
			c0.23,0.49,0.82,0.7,1.32,0.47l3.53-1.69c0.49-0.23,0.7-0.82,0.46-1.32L254.37,263.08z"/>
		<path class="st3" d="M269.74,254.93c-0.2-0.62-1.45-2.86-2.07-2.67l-0.36,0.11c-0.63,0.2-0.38,2.75-0.18,3.38l3.51,11.21
			c0.19,0.62,3.23,8.55,3.86,8.35l0.36-0.11c0.62-0.19-1.41-8.43-1.6-9.06L269.74,254.93z"/>
		<path class="st3" d="M273.21,242.83c-0.62-0.22-3.94,7.59-4.15,8.2l-2.03,5.74c-0.22,0.62-0.56,3.16,0.06,3.38l0.35,0.12
			c0.62,0.22,1.95-1.98,2.17-2.59l2.03-5.74c0.22-0.61,2.54-8.78,1.93-8.99L273.21,242.83z"/>
	</g>
	<g>
		<polygon class="st7" points="200.96,225.22 250.5,328.68 259.17,324.53 236.15,208.2 		"/>
		<polygon class="st10" points="225.83,277.03 250.47,328.49 261.15,323.37 247.65,266.47 		"/>
		<polygon class="st11" points="203.87,218.44 0,317.36 0,456.54 257.97,331.36 		"/>
		<path class="st7" d="M189.36,236.87c-2.91,0.63-4.74,3.51-4.11,6.41c0.63,2.9,3.5,4.74,6.4,4.11c2.91-0.64,4.75-3.51,4.11-6.4
			C195.13,238.07,192.27,236.24,189.36,236.87z"/>
		<path class="st7" d="M172.74,244.83c-2.9,0.64-4.74,3.51-4.11,6.41c0.63,2.91,3.51,4.75,6.41,4.11c2.9-0.63,4.74-3.5,4.11-6.4
			C178.51,246.04,175.65,244.2,172.74,244.83z"/>
		<path class="st7" d="M156.13,252.8c-2.9,0.63-4.74,3.51-4.11,6.41c0.64,2.9,3.51,4.74,6.41,4.11c2.91-0.64,4.74-3.51,4.11-6.42
			C161.9,254.01,159.03,252.17,156.13,252.8z"/>
		<polygon class="st12" points="230.9,274.91 0,386.95 0,456.54 257.97,331.36 		"/>
	</g>
</g>
<g>
	<g>
		<path class="st1" d="M277.16,311.6c-3.54-6.94-11.63-18.66-24.42-12.29c-10.16,5.06-4.4,20.5-1.63,26.71l76.46,149.83
			c3.77,6.92,6.94,18.69,19.42,13.41c15.17-6.41,8.81-22.73,6.06-28.93L277.16,311.6z"/>
		<path class="st1" d="M348.12,376.8c-3.55-6.94-11.26-17.86-24.42-12.29c-15.17,6.42-8.81,22.73-6.04,28.93l40.86,79.07
			c3.77,6.92,11.35,16.46,23.82,11.19c15.17-6.42,8.81-22.72,6.06-28.93L348.12,376.8z"/>
		<path class="st1" d="M378.95,369.76c-3.54-6.94-11.25-17.86-24.41-12.29c-15.17,6.42-8.81,22.73-6.04,28.93l40.85,79.07
			c3.77,6.92,11.35,16.46,23.83,11.18c15.17-6.41,8.81-22.72,6.06-28.93L378.95,369.76z"/>
		<path class="st1" d="M409.21,367.26c-3.54-6.94-11.26-17.86-24.42-12.29c-15.16,6.42-8.8,22.73-6.04,28.93l30.64,58.77
			c3.77,6.92,11.35,16.47,23.83,11.19c15.17-6.41,8.81-22.72,6.06-28.93L409.21,367.26z"/>
		<path class="st1" d="M451.06,448.36c-5.83-11.59-18.24-35.51-18.24-35.51l-98,48.87c0,0-41.1-24.38-56.09-22.65
			c-14.98,1.74-30.24,10.75-27.25,13.88c2.99,3.13,72.32,40.39,72.32,40.39s7.92,7.19,18.51,13.97c10.59,6.77,24.18,8.41,24.18,8.41
			l15.32,30.45l80.41-40.45l-13.62-27.07C448.61,478.66,456.89,459.94,451.06,448.36z"/>
	</g>
	<g>
		<polygon class="st7" points="363.15,531.19 376.17,557.1 478.67,505.6 465.64,479.68 		"/>
		
			<rect x="366.77" y="516.7" transform="matrix(0.8935 -0.449 0.449 0.8935 -196.432 234.0614)" class="st10" width="57.05" height="29"/>
		<polygon class="st11" points="480.53,498.45 368.63,554.65 388.78,595.28 528.56,595.28 		"/>
		<path class="st7" d="M473.13,521.24c-2.27,1.9-2.58,5.3-0.67,7.58c1.91,2.27,5.3,2.58,7.58,0.67c2.28-1.91,2.58-5.3,0.67-7.58
			C478.8,519.63,475.42,519.33,473.13,521.24z"/>
		<path class="st7" d="M481.41,537.71c-2.28,1.91-2.58,5.3-0.67,7.58c1.9,2.28,5.3,2.59,7.58,0.67c2.27-1.91,2.58-5.3,0.67-7.58
			C487.08,536.1,483.68,535.8,481.41,537.71z"/>
		<path class="st7" d="M489.68,554.17c-2.28,1.92-2.59,5.3-0.68,7.59c1.91,2.27,5.3,2.58,7.58,0.67c2.28-1.91,2.58-5.3,0.67-7.58
			C495.35,552.57,491.95,552.27,489.68,554.17z"/>
		<polygon class="st12" points="368.63,554.65 388.78,595.28 458.67,595.28 424.58,526.57 		"/>
	</g>
</g>
</svg>
