<?xml version="1.0" encoding="utf-8"?>
<!-- Generator: Adobe Illustrator 25.1.0, SVG Export Plug-In . SVG Version: 6.00 Build 0)  -->
<svg version="1.1" id="Layer_1" xmlns="http://www.w3.org/2000/svg" xmlns:xlink="http://www.w3.org/1999/xlink" x="0px" y="0px"
	 viewBox="0 0 100 100" style="enable-background:new 0 0 100 100;" xml:space="preserve">
<style type="text/css">
	.st0{fill:#FEFEFE;}
	.st1{fill:#F5F5F5;}
	.st2{fill:#F3F3F3;}
	.st3{fill:#141414;}
	.st4{fill:#1D1D1D;}
</style>
<path d="M89.9,50.2c0,8,0,16.1,0,24.1c0,0.7-0.2,1-0.9,1.3c-12.4,4.9-24.9,9.8-37.3,14.7c-1.1,0.4-2.4,0.4-3.5,0
	c-12.5-4.9-24.9-9.8-37.4-14.7c-0.6-0.2-0.8-0.5-0.8-1.1c0-16.2,0-32.3,0-48.5c0-0.6,0.2-0.8,0.7-1c13.4-5.1,26.8-10.2,40.2-15.2
	c0.5-0.2,0.9-0.2,1.4,0c12.3,5,24.6,10,36.9,15c0.7,0.3,0.8,0.6,0.8,1.3C89.9,34,89.9,42.1,89.9,50.2z"/>
<path class="st0" d="M87.1,29.3c0,14.5,0,28.9,0,43.3c0,0.8-0.4,0.8-0.9,1c-9.5,3.7-18.9,7.5-28.4,11.2c-2.1,0.8-4.2,1.7-6.4,2.5
	c0-0.5,0-0.8,0-1.1c0-13.9,0-27.9,0-41.8c0-0.7,0.1-1.1,0.8-1.3c11.4-4.5,22.7-8.9,34.1-13.4C86.5,29.5,86.7,29.5,87.1,29.3z"/>
<path class="st0" d="M12.9,29.3c4.3,1.7,8.4,3.3,12.6,4.9c0.5,0.2,0.5,0.5,0.5,1c0,3.4,0,6.7,0,10.2c0.8-0.3,1.3,0.2,1.9,0.5
	c0.7,0.4,1.7,0.3,2.3,1.1c1.2-0.6,1.5,0.6,2.2,1c0.3-0.3,0.2-0.6,0.2-0.9c0-3.1,0-6.2,0-9.2c0-0.6,0-0.8,0.8-0.5
	c4.9,2,9.8,3.9,14.7,5.8c0.7,0.3,0.6,0.7,0.6,1.3c0,11.7,0,23.4,0,35.2c0,2.5,0,5.1,0,7.6c-0.3,0.2-0.6,0-0.8-0.1
	c-11.2-4.6-22.5-8.8-33.8-13.3c-0.8-0.3-1.1-0.7-1.1-1.6c0-13.9,0-27.8,0-41.8C12.9,30.1,12.9,29.8,12.9,29.3z"/>
<path class="st0" d="M86.2,26.6C78,29.8,70,33,62,36.1c-3.7,1.5-7.5,3-11.2,4.4c-0.4,0.2-0.8,0.3-1.3,0.1c-4.6-1.8-9.2-3.7-14-5.6
	c1.3-0.5,2.5-1,3.6-1.5c10.4-4.2,20.9-8.4,31.3-12.7c0.7-0.3,1.3-0.3,2,0c4.2,1.8,8.5,3.5,12.7,5.2C85.4,26.2,85.7,26.4,86.2,26.6z"
	/>
<path class="st0" d="M63.5,17.3c-7.5,2.9-14.8,5.8-22.1,8.6c-4.7,1.8-9.3,3.6-14,5.4c-0.4,0.2-0.8,0.3-1.3,0.1
	c-3.8-1.5-7.6-3-11.4-4.5c-0.1,0-0.2-0.1-0.4-0.3c4.4-1.7,8.7-3.3,13-4.9c7.8-3,15.6-5.9,23.4-8.9c0.7-0.3,1.2-0.2,1.9,0
	C56.1,14.3,59.7,15.8,63.5,17.3z"/>
<path d="M81,56.8c-0.4,7-3.2,12.6-9.1,16.4c-2.1,1.4-4.5,2.1-7.2,1.5c-2.3-0.6-3.8-2.1-4.8-4.2c-1.4-3.2-1.3-6.5-0.2-9.8
	c1.6-5.3,4.5-9.6,9.5-12.2c2.8-1.4,5.6-1.7,8.3,0.2c2.4,1.7,3.3,4.2,3.4,7.1C81.1,56.1,81,56.4,81,56.8z"/>
<path d="M19.2,56.9c-0.2-2.2,0.4-4.5,1.9-6.7c1.6-2.2,4.7-3.6,8.2-2.4c6.6,2.3,9.7,7.4,11.3,13.7c0.8,3.1,0.9,6.3-0.4,9.3
	c-1.7,4.2-5.6,5.9-9.8,4.2c-5.3-2-8.2-6.3-10.2-11.3c-0.4-0.9-0.6-1.9-0.9-2.9C19.1,59.7,19.2,58.5,19.2,56.9z"/>
<path class="st0" d="M74.7,56.4c0.1,2-0.9,3.6-2,5.2c-0.5,0.7-0.5,1,0.5,1.1c1.7,0.1,3.1,0.8,4.2,2.2c0.2,0.3,0.4,0.5,0.1,0.8
	c-2.1,3.5-4.7,6.3-8.8,7.3c-1.8,0.5-3.6,0.2-5.2-0.8c-0.7-0.4-0.9-0.9-0.5-1.7c1.1-2.3,2.7-4.2,4.6-5.9c0.5-0.4,0.6-0.7,0-1.1
	c-2-1.3-2.3-3.2-1.9-5.3c0.4-2,1.4-3.8,3.1-5c1.2-0.9,2.6-1.5,4-0.8C74.3,53.4,74.7,54.7,74.7,56.4z"/>
<path class="st0" d="M29.1,53.1c0.4,0,0.8,0.3,1.3,0c-0.3-0.9-0.6-1.7-1.8-1.7c-0.3,0-0.4-0.3-0.6-0.4c-0.2-0.1-0.6-0.4-0.4,0.3
	c0.1,0.3-0.4,0.1-0.5,0.2c-0.1,0.1-0.4-0.1-0.4-0.3c0-0.4,0.6,0.1,0.6-0.5c-0.7,0.3-0.8-0.4-1.2-0.7c-0.5-0.4-0.9,0.7-1.4,0
	c1.2-0.8,3.5-0.7,5.2-0.1c2.6,1,4.5,2.9,6.2,5.1c0.1,0.1,0.4,0.4,0.1,0.5c-1.3,0.6,0.2,0.9,0.2,1.5c-0.3,0.2-0.8-0.1-1.1,0.3
	c-0.3-0.2-0.4-0.5-0.6-0.8c-0.1-0.1-0.2-0.3-0.4-0.1c-0.1,0.1,0.1,0.2,0.2,0.3c0.2,0.3,0.6,0.5,0.3,0.9c-0.4,0,0.3,0.7-0.3,0.6
	c-0.3-0.1-0.5-0.3-0.7,0.1c-0.2,0.3,0.1,0.6,0.3,0.9c0.1,0.2,0.7,0,0.5,0.5l0,0c-0.5-0.1-1-0.3-1,0.5c0,0.1,0,0.1-0.1,0.2
	c-1,1.2-1,2.5,0,3.8c0.3,0.4,0.8,0.4,1.1,0.5c0.9,0.1,1.5,0.5,1.5,1.5c0,0.4,0.2,0.7,0.3,1.1c0.1,0.2,0.3,0.5,0.3,0.7
	c-0.7,1.3,0.3,2.5,0.4,3.8c0,0.5-0.1,0.8-0.4,1c-2,1.6-4.3,1.7-6.6,0.8c-4.2-1.7-6.7-5.1-8.4-9.1c-1.2-3-1.7-6.1-0.9-9.4
	c0-0.1,0.1-0.3,0.1-0.4c0-0.1,0.1-0.3,0.2-0.4c0.4,0.5,0.6,1.1,0.6,1.7c0,0.4,0.1,0.4,0.7,0.6c0.2,0.1,0.3,0.4,0.3,0.6
	c-0.1,0.5,0.1,0.9,0.5,1.1c1,0.5,1.7,1.3,2.2,2.3c0.5-0.9-0.6-1.5-0.4-2.3c0-0.1-0.3,0-0.4,0c-0.3,0.1-0.6,0.1-0.8-0.3
	c-0.3-0.4-0.1-0.7,0.1-1c0.2-0.3,0.5-0.5,0.9-0.4c0.6,0.2,1.1,0.4,1.2,1.3c0.4-1.6,2.2-2.7,4.3-2.7c-0.3-0.5-0.2-1.3-1-1.5
	C29.2,53.7,29.2,53.3,29.1,53.1C29.2,53.1,29.1,53.1,29.1,53.1z"/>
<path class="st1" d="M34.7,59.6c0.2-0.2,0.4-0.5,0.6-0.7c0.4-0.4,0.7-0.4,1,0.1c0,0.1,0.2,0.2,0.2,0.2c0.6,0,0.6,0,1,0.8
	c0.1,0.1,0.2,0.2,0.3,0.4c0.1-0.2,0.1-0.3,0.3-0.8c-0.1,1.2,1.2,1.4,1,2.7c-0.8-1.2-2.5-0.8-3-2.3C36,59.5,35.1,59.8,34.7,59.6
	C34.7,59.6,34.7,59.6,34.7,59.6z"/>
<path class="st2" d="M29.2,53.1c-0.3,0-0.9-0.6-0.9,0.4c0,0.5-0.8,0.1-0.7,0.8c-0.4-0.3-0.1-0.8-0.5-0.9c-0.4-0.2-0.6-0.5-0.3-0.8
	c0.3-0.3,0.7-0.3,1.1-0.2c0.1,0,0.1,0.4,0.4,0.2c0.4-0.3,0.8-0.6,1.3-0.2C29.9,52.7,28.9,52.7,29.2,53.1
	C29.1,53.1,29.2,53.1,29.2,53.1z"/>
<path class="st3" d="M34.9,57.6c0.1-0.4-0.5-0.5-0.4-0.9c0.1-0.2,0.2-0.3,0.4-0.2c0.2,0.3,0.4,0.5,0.4,0.9
	C35.2,57.6,35.1,57.6,34.9,57.6z"/>
<path d="M29.2,72.1c-0.8,0-0.9-0.4-1.2-0.8c-0.7-0.9-0.7-2-0.7-2.9c0-1.7-0.3-3.2-1.3-4.7c-0.4-0.7-1.1-1.5,0-2.3
	c0.2-0.2-0.3-0.9,0.4-1.1c0.1,0,0.2-0.3,0.4-0.1c1,0.9,2.4,1.4,2.7,2.9c0.1,0.5,0.5,0.7,0.8,0.9c0.8,0.5,1.7,0.9,0.9,2.1
	c-0.2,0.2-0.1,0.6-0.2,0.9c0,0.4-0.2,0.6-0.6,0.5C30.1,67.4,30,67.6,30,68c0.2,0.9-0.4,1.4-1.1,1.6c-0.5,0.1-0.4,0.5-0.3,0.6
	C28.7,70.8,28.6,71.5,29.2,72.1z"/>
<path class="st4" d="M34.9,56.5c-0.1,0.1-0.3,0.1-0.4,0.2c-0.2,0-0.5,0.2-0.5-0.2c0-0.4,0.5-0.6,0.7-0.6
	C35.1,55.8,34.8,56.3,34.9,56.5z"/>
</svg>
