<?xml version="1.0" encoding="utf-8"?>
<!-- Generator: Adobe Illustrator 22.1.0, SVG Export Plug-In . SVG Version: 6.00 Build 0)  -->
<svg version="1.1" id="Layer_1" xmlns="http://www.w3.org/2000/svg" xmlns:xlink="http://www.w3.org/1999/xlink" x="0px" y="0px"
	 viewBox="0 0 100 100" style="enable-background:new 0 0 100 100;" xml:space="preserve">
<style type="text/css">
	.st0{fill:#247D21;}
	.st1{fill:#EBFCE8;}
	.st2{fill:#1A9B00;}
	.st3{fill:#FEFEFE;}
</style>
<path class="st0" d="M50.1,98.6c-26-0.1-48-21.6-47.5-49.1C3,23.2,24.4,1.8,50.8,2C76.9,2.2,98.2,24,98,50.5
	C97.8,77.3,76.4,98.8,50.1,98.6z"/>
<path class="st1" d="M3.7,50.1c0-26.1,21-47.1,46.8-47.1c25.5,0.1,46.4,21.3,46.4,47.1c0,26.3-20.9,47.5-46.7,47.4
	C24.4,97.5,3.6,76.3,3.7,50.1z"/>
<path class="st2" d="M50,5.1C74.5,5,94.6,25.2,95,49.8C95.3,74.1,76.2,95.7,50.6,96C25.6,96.2,5.5,76.1,5.3,51
	C5.1,25.5,24.8,5.3,50,5.1z"/>
<path class="st3" d="M34.8,61.7c3.5-6.8,7.1-13.2,11.3-19.3c5.8-8.5,13.6-14.4,23-18c2.7-1,5.6-1.3,8.5-1c1.3,0.2,2.4,0.7,2.7,2
	c0.3,1.5-0.6,2.2-1.7,2.9c-4.5,2.6-9,5.1-13,8.5c-5.5,4.8-9.5,10.9-13,17.3c-2.7,5-5.3,10-8,14.9c-1.6,2.9-3.2,5.9-4.8,8.7
	c-2.9,5-7.3,5.3-10.7,0.7c-4.6-6.2-8.8-12.6-11.3-20c-0.5-1.5-0.8-3.1-0.8-4.8c0.2-4.4,4.3-6.8,8.1-4.6c2.6,1.5,4.3,3.8,5.9,6.2
	C32.4,57.4,33.5,59.4,34.8,61.7z"/>
</svg>
