<?xml version="1.0" encoding="utf-8"?>
<!-- Generator: Adobe Illustrator 25.1.0, SVG Export Plug-In . SVG Version: 6.00 Build 0)  -->
<svg width="10" height="10" version="1.1" id="Layer_1" xmlns="http://www.w3.org/2000/svg" xmlns:xlink="http://www.w3.org/1999/xlink" x="0px" y="0px"
	 viewBox="0 0 32 32" style="enable-background:new 0 0 32 32;" xml:space="preserve">
<style type="text/css">
	.st0{fill:#010101;}
	.st1{fill:#FEFEFE;}
	.st2{fill:#FD9703;}
</style>
<path class="st0" d="M31.3,16.3c0,8.3-6.6,15.2-15,15.3C7.8,31.8,0.8,25.1,0.6,16.7C0.3,7.9,7.4,0.8,16.1,0.9
	C24.3,1,31.3,7.7,31.3,16.3z M30,16.1c0-7-5.7-12.5-12.7-12.3C10.6,3.9,5.2,9.6,5.4,16.4c0.2,6.5,5.4,11.9,12.3,11.9
	C24.4,28.3,30,22.8,30,16.1z"/>
<path class="st1" d="M30,16.1c0,6.8-5.5,12.3-12.3,12.2c-6.8,0-12.1-5.4-12.3-11.9C5.2,9.5,10.6,3.9,17.3,3.7
	C24.3,3.5,30,9.1,30,16.1z M29.1,16c0-6.5-5.1-11.4-11.3-11.4C11.4,4.6,6.4,9.7,6.3,15.8c-0.1,6.7,5.2,11.6,11.2,11.7
	C24,27.5,29.1,22.3,29.1,16z"/>
<path class="st2" d="M29.1,16c0,6.2-5.1,11.5-11.6,11.4c-6-0.1-11.3-5-11.2-11.7C6.4,9.7,11.4,4.6,17.8,4.6C24,4.7,29.1,9.6,29.1,16
	z M27.4,15.5c0.1,0,0.2,0,0.2,0c0.2,0,0.4-0.1,0.4-0.3c0-0.2-0.2-0.3-0.4-0.3c-0.2,0-0.3,0-0.5,0c-0.1,0-0.2,0-0.2-0.2
	c-0.2-1-0.8-1.9-1.6-2.5c-1.2-0.8-2.5-1-3.8-0.6c-1.4,0.5-2.3,1.5-2.6,2.9c0,0.1,0,0.2-0.2,0.1c-0.7-0.4-1.3-0.4-2,0
	c-0.1,0.1-0.2,0.1-0.2-0.1c-0.2-0.7-0.5-1.2-0.9-1.7c-1.1-1.2-2.9-1.7-4.4-1.2c-1.6,0.6-2.5,1.7-2.8,3.4c0,0.1-0.1,0.1-0.2,0.1
	c-0.2,0-0.4,0-0.6,0c-0.2,0-0.3,0.2-0.3,0.4c0,0.2,0.1,0.3,0.3,0.3c0.2,0,0.4,0,0.6,0c0.1,0,0.1,0,0.2,0.1c0,0.3,0.1,0.6,0.2,0.8
	c0.7,2.1,3,3.3,5.1,2.6c1.6-0.5,2.5-1.6,2.9-3.2c0-0.2,0-0.5,0.1-0.6c0.2-0.3,0.5-0.6,0.9-0.7c0.4,0,0.7,0.2,1,0.5
	c0.1,0.1,0.1,0.2,0.1,0.3c0.1,1.1,0.5,2,1.2,2.7c1.3,1.2,2.9,1.5,4.5,0.8c1.5-0.6,2.3-1.8,2.5-3.4C27,15.5,27,15.5,27.4,15.5z"/>
<path class="st0" d="M27.4,15.5c-0.4,0-0.4,0-0.4,0.4c-0.2,1.6-1,2.8-2.5,3.4c-1.7,0.7-3.2,0.4-4.5-0.8c-0.8-0.7-1.2-1.6-1.2-2.7
	c0-0.1-0.1-0.2-0.1-0.3c-0.3-0.3-0.5-0.5-1-0.5c-0.4,0-0.7,0.3-0.9,0.7c-0.1,0.2-0.1,0.4-0.1,0.6c-0.3,1.6-1.3,2.7-2.9,3.2
	c-2.1,0.7-4.4-0.5-5.1-2.6c-0.1-0.3-0.2-0.6-0.2-0.8c0-0.1-0.1-0.1-0.2-0.1c-0.2,0-0.4,0-0.6,0c-0.2,0-0.3-0.1-0.3-0.3
	c0-0.2,0.1-0.3,0.3-0.4c0.2,0,0.4,0,0.6,0c0.1,0,0.1,0,0.2-0.1c0.3-1.7,1.2-2.8,2.8-3.4c1.5-0.5,3.3-0.1,4.4,1.2
	c0.4,0.5,0.8,1.1,0.9,1.7c0,0.1,0.1,0.2,0.2,0.1c0.7-0.4,1.3-0.4,2,0c0.1,0.1,0.1,0,0.2-0.1c0.4-1.4,1.3-2.4,2.6-2.9
	c1.3-0.5,2.6-0.3,3.8,0.6c0.9,0.6,1.4,1.4,1.6,2.5c0,0.1,0.1,0.2,0.2,0.2c0.2,0,0.3,0,0.5,0c0.2,0,0.4,0.1,0.4,0.3
	c0,0.2-0.2,0.3-0.4,0.3C27.5,15.5,27.4,15.5,27.4,15.5z M26.3,15.5c0-1.8-1.4-3.4-3.4-3.4c-1.9,0-3.5,1.5-3.5,3.4
	c0,1.9,1.6,3.4,3.5,3.4C24.7,19,26.3,17.5,26.3,15.5z M16,15.5c0-1.9-1.5-3.4-3.4-3.4c-1.9,0-3.5,1.5-3.5,3.4c0,1.9,1.5,3.5,3.4,3.5
	C14.4,19,16,17.5,16,15.5z"/>
<path class="st1" d="M26.3,15.5c0,1.9-1.5,3.5-3.4,3.4c-1.9,0-3.5-1.6-3.5-3.4c0-1.9,1.6-3.5,3.5-3.4C24.9,12.1,26.3,13.7,26.3,15.5
	z M22.5,14.4c0,0.3,0,0.7,0,1c0,0.2,0,0.3,0.2,0.4c0.3,0.3,0.7,0.7,1,1c0.2,0.2,0.4,0.2,0.5,0c0.1-0.1,0.1-0.3,0-0.5
	c-0.3-0.3-0.6-0.6-0.9-0.9c-0.1-0.1-0.1-0.2-0.1-0.3c0-0.6,0-1.3,0-1.9c0-0.2-0.1-0.4-0.3-0.4c-0.2,0-0.3,0.2-0.3,0.4
	C22.5,13.7,22.5,14,22.5,14.4z"/>
<path class="st1" d="M16,15.5c0,1.9-1.6,3.5-3.5,3.5c-1.9,0-3.4-1.6-3.4-3.5c0-1.9,1.6-3.4,3.5-3.4C14.4,12.1,16,13.7,16,15.5z
	 M12.2,14.4c0,0.4,0,0.7,0,1.1c0,0.1,0,0.2,0.1,0.3c0.4,0.4,0.7,0.7,1.1,1.1c0.1,0.1,0.1,0.1,0.2,0.1c0.2,0,0.3,0,0.4-0.2
	c0.1-0.1,0.1-0.3-0.1-0.4c-0.3-0.3-0.6-0.6-0.9-0.9c-0.1-0.1-0.1-0.2-0.1-0.3c0-0.6,0-1.3,0-1.9c0-0.3-0.1-0.4-0.3-0.4
	s-0.3,0.2-0.3,0.4C12.2,13.7,12.2,14,12.2,14.4z"/>
<path class="st0" d="M22.5,14.4c0-0.4,0-0.7,0-1.1c0-0.2,0.1-0.4,0.3-0.4c0.2,0,0.3,0.2,0.3,0.4c0,0.6,0,1.3,0,1.9
	c0,0.1,0,0.2,0.1,0.3c0.3,0.3,0.6,0.6,0.9,0.9c0.2,0.2,0.2,0.4,0,0.5c-0.1,0.1-0.4,0.1-0.5,0c-0.3-0.3-0.7-0.7-1-1
	c-0.1-0.1-0.2-0.2-0.2-0.4C22.5,15.1,22.5,14.8,22.5,14.4z"/>
<path class="st0" d="M12.2,14.4c0-0.4,0-0.7,0-1.1c0-0.3,0.1-0.4,0.3-0.4c0.2,0,0.3,0.2,0.3,0.4c0,0.6,0,1.3,0,1.9
	c0,0.1,0,0.2,0.1,0.3c0.3,0.3,0.6,0.6,0.9,0.9c0.1,0.1,0.2,0.3,0.1,0.4c-0.1,0.1-0.2,0.2-0.4,0.2c-0.1,0-0.1-0.1-0.2-0.1
	c-0.4-0.4-0.7-0.7-1.1-1.1c-0.1-0.1-0.1-0.2-0.1-0.3C12.2,15.1,12.2,14.8,12.2,14.4z"/>
</svg>
