<?xml version="1.0" encoding="utf-8"?>
<!-- Generator: Adobe Illustrator 25.1.0, SVG Export Plug-In . SVG Version: 6.00 Build 0)  -->
<svg version="1.1" id="Layer_1" xmlns="http://www.w3.org/2000/svg" xmlns:xlink="http://www.w3.org/1999/xlink" x="0px" y="0px"
	 viewBox="0 0 612 792" style="enable-background:new 0 0 612 792;" xml:space="preserve">
<style type="text/css">
	.st0{display:none;fill:#85CB40;}
	.st1{fill:#19813D;}
	.st2{fill:#542781;}
	.st3{fill:#00332B;}
	.st4{fill:#77B200;}
	.st5{fill:#11783C;}
	.st6{fill:#19823D;}
	.st7{fill:#77B301;}
	.st8{fill:#07893E;}
	.st9{fill:#FEFEFE;}
	.st10{fill:#CECFCE;}
	.st11{fill:#00342B;}
	.st12{fill:#03352D;}
	.st13{fill:#01352B;}
	.st14{fill:#4B2273;}
	.st15{fill:#08893E;}
</style>
<path class="st0" d="M305.99,701.91c-131.77,0-263.54-0.02-395.31,0.09c-3.63,0-4.67-0.63-4.67-4.52
	c0.12-196.9,0.12-393.81-0.02-590.71c0-4.22,1.06-4.77,4.95-4.77c263.37,0.11,526.75,0.11,790.12,0c3.92,0,4.93,0.6,4.93,4.79
	c-0.14,196.9-0.13,393.81-0.01,590.71c0,3.93-1.08,4.51-4.68,4.5C569.53,701.9,437.76,701.91,305.99,701.91z"/>
<path class="st1" d="M397.46,113.1c31.79,8.03,51.49,32.63,52.46,65.35c0.28,9.35,0.96,18.68,1.17,28.03
	c0.08,3.71,1.1,4.26,4.53,3.05c32.41-11.39,65.01-11.27,97.69-1.2c2.98,0.92,5.86,0.65,8.83,0.33c6.36-0.69,11.89,0.73,15.46,6.58
	c3.47,5.69,3.16,11.39-0.6,16.77c-1.87,2.67-2.05,5.45-1.9,8.48c0.82,16.36-1.44,32.18-7.64,47.46
	c-4.3,10.59-10.97,19.5-18.25,28.08c-2,0-2.18-1.46-2.35-2.93c4.93-10.25,12.14-19.26,15.32-30.53c4.94-17.51,5.35-34.98,1.47-52.62
	c-0.86-3.91-2.23-7.52-6.83-9.18c-33.99-12.27-67.85-12.75-101.74,0.34c-4.2,1.62-5.9,4.43-5.85,8.75
	c0.07,5.74-0.11,11.48,0.05,17.21c0.21,7.31,2.7,8.88,9.12,5.7c22.28-11.01,45.54-13.76,69.83-8.74
	c8.42,1.74,10.91,4.03,11.37,12.65c0.77,14.6,1.67,29.3-6.99,42.39c-1.47,0.38-3.47,2.58-3.75-1.09
	c3.95-12.11,5.41-24.37,2.79-37.01c-0.83-4.01-2.49-6.34-6.74-7.07c-24.38-4.16-47.32-0.58-68.74,12.08c-3.19,1.89-4.86,4-4.94,8.02
	c-2,95.09-15.99,188.46-40.54,280.29c-0.27,1.02-0.38,2.09-0.57,3.13c-0.96,3.53-4.12,4.12-6.92,4.82
	c-20.82,5.21-41.92,8.78-63.4,9.43c-6.17,0.19-12.23,1.37-18.38,1.33c-28.93-0.17-57.52-3.34-85.71-9.95
	c-3.63-0.85-7.72-1.23-9.24-5.66c-15.21-51.6-27.07-103.96-35.25-157.11c-3.52-22.87-6.92-45.78-8.22-68.92
	c-0.29-5.09-2.42-6.93-7.25-7.59c-25.69-3.47-48.77,3.13-70.22,17.11c-3.17,2.07-3.08,4.48-2.48,6.99
	c2.42,10.15,6.1,19.81,12.61,28.16c-0.53,1.52-1.64,2.19-3.21,2.17c-2.75-0.58-4.24-2.72-5.69-4.79
	c-6.4-9.13-11.04-19.03-13.2-30.06c-0.74-3.79-0.04-6.51,3.13-8.87c21.42-15.9,45.37-23.67,72.04-21.93
	c13.76,0.9,13.7,1.33,13.72-11.95c0-3.62-0.56-7.21-0.55-10.79c0.02-5.39-3.05-7.12-7.56-7.41c-41.56-2.72-77.66,9.98-108.25,38.33
	c-3.92,3.64-5.1,7.22-3.95,12.87c3.6,17.64,10.68,33.41,22.14,47.26c1.45,1.75,3.37,3.42,2.39,6.17c-1.31,1.94-2.96,1.64-4.69,0.7
	c-0.39-0.34-0.78-0.67-1.17-1.01c-1.2-3.1-3.62-5.05-6.35-6.71c-8.74-8.97-13.93-20.1-18.66-31.42c-1.79-4.3-3.33-8.55-6.18-12.41
	c-3.77-5.11-2.52-14.66,2.64-18.63c13.72-10.54,26.5-22.41,42.37-30c24.99-11.96,51.15-17.9,78.88-15.76
	c4.34,0.34,5.27-0.41,5.12-4.92c-1.01-32.3-1.65-64.63,0.71-96.89c1.92-26.29,24.87-51.3,51.33-56.87c3.37-0.71,7.38-0.13,9.67-3.76
	c7.97,1.11,15.82,2.28,22.94,6.71c3.58,2.22,8.14,2,12.42,1.97c14.33-0.07,27.66,3.42,39.57,11.59c2.66,1.82,4.95,1.75,7.56-0.06
	c11.91-8.24,25.36-11.37,39.61-11.5c6.01-0.06,11.43-0.71,16.82-4.29C384.65,110.19,391.21,107.95,397.46,113.1z"/>
<path class="st2" d="M226.46,557.38c40.96,11.28,82.53,14.94,124.86,10.72c19.92-1.98,39.5-5.47,58.79-10.7
	c3.21,0.65,6.14,2.2,5.41,5.83c-4.27,21.07,6.52,39.35,10.7,58.83c1.51,7.04,3.6,14,5.97,20.81c1.65,4.76,1.17,8.67-2.21,12.3
	c-5.36,5.78-8,13.94-15.58,17.77c-7.18,5.44-11.09,5.02-16.34-2.44c-5.05-7.18-11.17-13.31-17.48-19.3
	c-3.49-3.32-6.82-4.17-11.87-1.73c-34.38,16.59-68.81,16.13-102.65-1.58c-5.67-2.97-10.54-3.55-16.16-0.96
	c-5.01,2.31-10.32,3.89-15.45,5.91c-5.37,2.11-10.43,1.89-14.28-3.22c-6.12-4.5-6.86-10.98-6.53-17.84
	c-5.81-4.7-6.42-7.81-2.74-14.02c0.65-1.1,1.15-2.32,1.96-3.27c11.53-13.51,13.67-28.7,8.82-45.48
	C220.34,564.43,219.28,558.92,226.46,557.38z"/>
<path class="st3" d="M397.46,113.1c-7.55-0.27-14.76,0.32-20.84,5.81c-2.64,2.38-6.44,1.79-9.82,1.71
	c-12.72-0.32-24.89,2.07-36.37,7.58c-2.45,1.18-4.72,2.84-6.83,4.58c-3.09,2.55-5.86,2.78-9.08,0.15
	c-10.12-8.27-22.27-11.03-34.87-12.07c-8.16-0.67-16.45,0.46-23.69-5.16c-2.91-2.25-7.05-2.85-10.98-2.56
	c-2.77,0.21-4.52-0.79-4.65-3.79c9.93-15.85,23.77-24.35,42.95-23.28c6.57,0.37,13.18-0.11,19.76,0.12
	c3.74,0.13,5.48-0.98,6.71-4.85c10.21-32.28,35.85-50.71,69.91-50.62c8.06,0.02,13.8,5.15,14.03,12.54
	c0.23,7.45-5.79,13.5-13.95,13.39c-9.01-0.12-17.78,0.56-26.22,4.04c-10.13,4.17-17.13,11.52-22.14,21.05
	c-1.63,3.1-1.3,4.53,2.68,4.44c8.29-0.19,16.58-0.05,24.87-0.06c16.65-0.02,28.42,8.44,37.61,21.51
	C397.79,109.42,397.67,111.2,397.46,113.1z"/>
<path class="st4" d="M436.19,751.3c-9.71,2.89-19.83,2.11-29.65,2.33c-23.08,0.51-46.13-1.29-69.18-3.08
	c-25.58-1.99-51-4.94-76.24-9.37c-17.52-3.07-35.06-6.3-51.92-12.32c-2-0.71-4.08-1.22-5.67-2.75c1.68-3.34,5.02-3.66,8.05-3.97
	c5.55-0.56,9.83-2.16,10.26-8.68c0.08-1.22,1.13-2.21,2.18-3c4.66-2.23,9.64-1.58,14.42-1.13c17.53,1.65,35.16,1.62,52.71,3.33
	c15.2,1.48,30.42,2.77,45.63,4.24c21.33,2.07,42.63,4.45,63.82,7.66c4.1,0.62,8.57,0.41,12.08,3.34c1.96,2.08,1.87,4.65,1.27,7.11
	c-1.35,5.58,1.42,8.24,6.34,9.63c3.83,1.08,7.82,1.51,11.6,2.77C433.91,748.08,435.99,748.64,436.19,751.3z"/>
<path class="st5" d="M436.19,751.3c-4.67-1.11-9.34-2.2-14-3.33c-12.41-3.02-13.92-5.94-9.44-18.18c-0.56-1.67-0.73-3.49,0.26-4.9
	c9.95-14.18,5.12-29,1.99-43.74c-0.72-3.42-3.07-6.64-1.08-10.33c2.79-3.92,8.31-5.49,8.58-11.79c0.12-2.92,4.82-2.71,7.47-3.84
	c2.14,4.33,3.21,9.23,6.97,12.71c1.47,1.36,1.97,3.45,1.71,5.32c-1.91,13.64,1.54,27.56-2.07,41.06c-1.12,4.18,0.38,5.61,4.06,6.79
	c12.71,4.07,25.35,8.39,38,12.67c8.38,2.84,9.57,9.09,2.98,15.06c-3.35,3.04-7.4,3.82-11.76,4.01
	C458.59,753.29,447.42,751.75,436.19,751.3z"/>
<path class="st6" d="M86.02,386.36c-13.74-15.45-22.64-33.21-26.28-53.66c-0.92-5.16,0.12-9.15,3.87-12.67
	c21.45-20.18,46.42-33.32,75.58-38.37c12.06-2.09,24.17-1,36.26-1.18c5.23-0.08,8.44,2.77,8.78,8.12
	c0.43,6.77-0.02,13.53,1.11,20.33c0.83,5.02-3.06,7.26-8.9,6.56c-28.46-3.39-54.38,3.07-77.6,20.11c-2.74,2.01-3.72,3.78-3,7.38
	c2.6,13.07,8.47,24.39,17.01,34.45c6.84,2.95,10.5,9.8,16.79,13.55c4.17,2.48,7.69,3.9,12.29,1.19c4.4-2.6,8.59-1.62,12.05,2.21
	c5.17,5.74,11.26,10.55,13.77,18.55c3.07,9.8,1.71,16.4-6.35,22.98c-1.81,1.48-3.53,3.09-5.09,4.83
	c-12.63,14.15-27.2,12.04-38.32-4.33c-2.79-4.11-2.73-9.43-6.35-13.02c0-0.85,0-1.7,0.01-2.55c6.8-11.58,6.26-12.93-6.56-16.53
	l0.07,0.05c-4.02-4.03-8.73-7.2-13.5-10.17C88.5,392.22,86.7,389.82,86.02,386.36z"/>
<path class="st6" d="M223.6,712.26c1.09,10.29,0.39,11.15-9.97,12.45c-3.37,0.42-6.74,0.93-10.1,1.4
	c-8.07-0.09-16.14-0.09-24.2-0.32c-4.25-0.12-8.53-0.61-12.21-2.99c-2.81-1.82-4.81-4.45-4.22-7.96c0.56-3.33,3.52-3.74,6.31-4.33
	c9.54-2.02,19.02-4.36,28.59-6.21c4.13-0.8,5.29-2.3,3.9-6.43c-4.64-13.79-4.05-28.24-2.94-42.27c0.58-7.31,7.49-13.35,11.6-19.92
	c0.89-1.42,2.16-2.61,3.26-3.9c1.34,0.34,2.65,1.12,2.43,2.52c-0.89,5.71,2.52,9.63,5.39,13.8c1.11,2.89-0.27,5.3-1.38,7.82
	c-7.6,17.21-5.85,33.98,2.64,50.34C223.73,708.26,224.34,710.1,223.6,712.26z"/>
<path class="st6" d="M528.85,297.97c0.81,1.04,1.77,0.7,2.74,0.3c1.29,7.27-5.03,14.08-12.24,14.08c-8.56,0-15.32,3.52-19.53,11.54
	c-3.14,5.97-2.83,11.52,1.08,16.66c4.07,5.35,10.8,6.43,16.56,8.92c5.37,2.33,10.92,1.99,15.29-2.23
	c5.22-5.04,6.98-11.42,5.44-18.61c-1.35-6.29,3.68-13.85,10-15.04c0.34,0.81,0.68,1.62,1.02,2.43c-3.46,3.37-3.96,6.66-2.36,11.69
	c3.62,11.38,2.16,22.57-6.87,31.25c-8.85,8.51-19.28,8.89-30.16,3.9c-1.74-0.8-3.53-1.48-5.3-2.19
	c-17.78-7.22-23.31-21.78-14.56-38.63c1.21-2.33,1.93-4.49,1.87-7.2c-0.18-8.08,4.19-11.67,12.22-10.07
	c3.56,0.71,7.13,0.93,10.69,1.38C521.8,307.05,526.61,304.96,528.85,297.97z"/>
<path class="st6" d="M111.62,423.38c3.92-0.26,4.66,2.66,5.87,5.48c3.46,8.05,7.92,15.2,17.15,17.86
	c7.03,2.03,12.39-0.91,17.19-5.41c3.7-3.46,7.08-7.17,11.29-10.17c5.48-3.9,3.47-9.93,2.59-15.23c-1.63-9.82-9.89-15.07-15.77-21.94
	c-1.06-1.24-2.89-1.59-4.1-0.75c-8.39,5.83-15.09,1.22-21.16-3.84c-4.27-3.56-9.26-6.65-11.85-11.96c0.94-0.47,1.88-0.94,2.82-1.4
	c5.19,4.67,9.72,10.04,15.62,13.95c3.3,2.19,5.57,2.3,8.83-0.49c8.08-6.94,13.69-5.3,17.68,4.72c1.04,2.6,3.28,3.82,5.18,5.43
	c12.55,10.63,13.48,26.92,1.94,38.51c-5.49,5.52-10.27,12.07-18.26,14.42C128.47,457.91,111.01,443.34,111.62,423.38z"/>
<path class="st7" d="M22.19,334.59c-0.94-19.11,6.23-33.2,20.79-43.65c0.86-0.62,1.71-1.3,2.66-1.74c3.34-1.56,7.61-4.99,10.04-0.47
	c2.47,4.59-3.18,5.4-5.95,7.2c-12.18,7.89-19.41,18.65-19.93,33.49c-0.29,8.14,0.39,16.09,3.17,23.82c0.93,2.6,1.77,5.96-1.84,6.98
	c-3.48,0.98-4.53-2.2-5.47-4.88C23.17,348.27,21.41,341.09,22.19,334.59z"/>
<path class="st7" d="M28.08,285.67c1.61-0.04,2.95,0.5,3.7,1.99c0.73,1.47,0.66,3.01-0.54,4.12c-1.39,1.29-3.01,2.34-4.54,3.47
	c-9.66,7.13-15.25,16.35-14.85,28.69c0.09,2.76,0.11,5.53,0.04,8.28c-0.06,2.42-1.1,4.15-3.81,4.1c-2.31-0.04-3.41-1.53-3.65-3.66
	c-1.83-16.14,1.74-30.38,14.67-41.25C21.83,289.12,24.22,286.22,28.08,285.67z"/>
<path class="st7" d="M597.78,227.53c0.02,2.18-0.9,3.75-3.14,4.08c-2.21,0.32-3.63-0.78-4.18-2.96c-0.47-1.85-0.92-3.7-1.38-5.55
	c-3.42-13.86-9.68-19.62-23.81-21.79c-2.56-0.39-5.71-0.34-5.01-4.01c0.62-3.25,3.53-3.82,6.54-3.55
	c15.37,1.37,26.22,11.17,29.69,26.92C596.99,222.95,597.35,225.25,597.78,227.53z"/>
<path class="st7" d="M584.2,183.42c9.57,0.07,22.21,10.76,23.68,20.03c0.36,2.25,0.24,4.38-2.37,5.13c-2.42,0.7-4.14-0.36-4.9-2.76
	c-2.79-8.8-8.89-13.57-17.9-14.86c-2.45-0.35-3.99-1.63-3.7-4.2C579.35,183.71,581.73,183.39,584.2,183.42z"/>
<path class="st6" d="M86.02,386.36c5.39,7.04,15.17,9.42,19.12,17.99c-8.88-3.94-16.78-9.24-23.17-16.63
	C83.44,387.64,84.89,387.5,86.02,386.36z"/>
<path class="st6" d="M105.07,404.3c1.68,0.01,3.38-0.18,5.03,0.06c3.72,0.55,7.56,1.95,7.51,6.19c-0.04,4.12-0.3,9.03-5.98,10.28
	c-0.02-0.83-0.33-1.81-0.01-2.47C115.23,410.93,112.25,406.65,105.07,404.3z"/>
<path class="st6" d="M74.44,380.01c3.92,0.53,6.12,2.69,6.35,6.71C78.67,384.48,76.55,382.24,74.44,380.01z"/>
<path class="st8" d="M188.27,224.15c3.09-17.71-0.07-36.04,2.26-54.25c2.96-23.12,24.84-44.42,47.99-46.79
	c11.39-1.17,22.46-0.78,33.44,1.55c11.9,2.53,13.9,9.01,6.74,18.78c-5.23,7.14-12.33,12.27-19.18,17.5
	c-27.78,21.17-40.18,50.92-46.89,83.67c-5.86,28.58-7.56,57.66-6.41,86.75c0.88,22.41,1.87,44.86,4.63,67.18
	c0.99,7.98,1.18,16.06,1.48,24.11c0.08,2.05,1.22,5.49-2.06,5.73c-2.77,0.2-3.18-3.16-3.61-5.31c-1.62-8.1-3.14-16.24-4.36-24.41
	c-4.71-31.65-8.42-63.39-10.52-95.35c-1.45-22.04-2.53-44.04-2.4-66.12C189.39,232.97,188.68,228.75,188.27,224.15z"/>
<path class="st6" d="M548.19,313.59c-5.41,5.17-9.11,10.12-8.06,19.01c1.8,15.2-10.84,23.61-25,18.07
	c-1.19-0.46-2.37-0.94-3.56-1.41c-11.86-4.61-16.88-11.11-15.64-20.25c1.28-9.35,10.14-18.7,20.8-18.31
	c10.11,0.37,11.65-6.27,14.86-12.43c5.58-13.8,8.01-27.96,5.67-42.87c-0.81-5.14-3.1-7.74-8.21-8.91
	c-24.35-5.6-47.59-2.5-69.96,8.25c-8.55,4.11-11.65,2.24-11.75-7.28c-0.06-5.95,0.09-11.91-0.04-17.86
	c-0.11-5.3,1.91-8.59,7.15-10.61c33.73-13.04,67.44-12.5,101.46-1.05c9.71,3.27,9.94,11.33,11.21,18.86
	c3.32,19.73,0.86,38.83-7.05,57.28C557.02,301.2,551.63,306.78,548.19,313.59z"/>
<path class="st9" d="M357.82,288.13c-13.55-0.45-27.1-0.81-40.64-1.38c-14.46-0.6-28.82,1.42-43.25,1.35
	c-2.41-1.7-4.31-3.69-4.04-6.95c1.67-7.81,3.22-8.9,10.7-9.92c11.12-1.51,22.36-1.95,33.47-2.09c13.01-0.15,26.16,0.49,39.15,2.37
	c2.6,0.38,4.66,1.92,6.7,3.45C364.21,280.87,363.75,283.74,357.82,288.13z"/>
<path class="st10" d="M359.08,276.61c-6.15-3.58-13.2-2.95-19.8-3.52c-19.8-1.71-39.63-0.9-59.41,1.12
	c-4.74,0.48-7.97,2.18-7.57,7.62c-5.73-3.91-5.48-13.28,0.47-18.1c1.97-0.78,3.95-1.25,6.14-1.24c24.41,0.06,48.81,0.08,73.22-0.01
	c2.72-0.01,4.99,0.44,6.73,2.6C363.76,269.23,363.81,271.73,359.08,276.61z"/>
<path class="st11" d="M374.34,218.3c-0.82,5.25-3.22,9.25-8.83,10.3c-5.25,0.98-9-1.38-11.55-5.87c-1.53-2.69-1.24-4.91,1.95-6.08
	c3.77-1.38,7.52-2.87,11.38-3.94C372,211.41,374.5,213.54,374.34,218.3z"/>
<path class="st12" d="M272.77,263.73c-4.21,5.93-0.85,12.05-0.47,18.1c0.54,2.09,1.08,4.18,1.62,6.27
	c-4.54,0.21-10.31,3.72-13.28-0.15c-3.2-4.17,1.27-9.2,3.27-13.48C265.89,270.24,265.49,263.69,272.77,263.73z"/>
<path class="st3" d="M359.08,276.61c0.07-3.85,2.31-7.74-0.22-11.54c2.64-2.03,4.22-0.79,5.3,1.77c2.2,5.21,4.5,10.39,6.5,15.67
	c2.08,5.49,1.07,6.88-4.79,6.7c-2.7-0.09-5.37-0.7-8.06-1.07C359.48,284.43,361.75,280.79,359.08,276.61z"/>
<path class="st13" d="M268.77,228.72c-4.18-0.17-7.4-1.39-9.79-4.47c-1.68-2.16-2.7-4.71-1.48-7.04c1.51-2.88,4.13-0.51,6.16-0.22
	c2.26,0.32,4.56,1.08,6.58,2.15c2.33,1.24,6.97,0.71,6.19,4.69C275.73,227.4,271.84,228.37,268.77,228.72z"/>
<path class="st0" d="M223.79,654.19c-10.96-16.3-11.64-36.36-1.7-50.24c2.74,3.39,5.97,3.71,9.61,1.54
	c0.28-0.17,0.62-0.25,0.91-0.41c11.07-5.83,20.96-6.12,33.22-0.07c23.91,11.81,48.71,9.41,72.31-3.02c2.91-1.53,4.76-1.69,7.42,0.5
	c5.82,4.79,11.05,10.05,15.5,16.12c4.81,6.58,4.84,6.56,11.77,3.12c5.72,11.7,6.92,24.07,5.26,36.81c-0.53,4.06-4.54,5.96-6.18,9.37
	c-10.85-2.53-21.94-3.49-32.95-4.9c-14.64-1.88-29.35-3.28-44.04-4.77c-8.42-0.86-16.86-1.66-25.31-2.17
	c-13.77-0.83-27.55-1.42-41.32-2.07C226.79,653.92,225.29,654.12,223.79,654.19z"/>
<path class="st14" d="M252.91,595.38c17.35,3.06,36.24,3.45,55.14,2.86c27.54-0.86,53.66-7.93,78.82-18.88
	c1.36-0.59,2.62-1.56,4.03-1.89c3.01-0.7,6-4.19,8.82-2.14c3.26,2.37,1.78,6.78,1.39,10.2c-0.5,4.39-1.95,8.68-3.01,13.01
	c-0.3,1.23-0.94,2.7,0.39,3.43c0.65,0.35,2.08-0.18,2.87-0.73c3.99-2.79,5.76-0.79,6.85,2.97c3.14,10.82,6.42,21.6,9.37,32.47
	c0.9,3.3,1.14,6.7-3.57,8.13c-3.05,0.92-2.06,4.27-2.7,6.63c-0.53,1.95-0.41,4.64-3.07,5.04c-2.19,0.33-3.14-1.76-4.34-3.25
	c-7.13-8.84-15.72-16.04-25.12-22.36c-3.16-2.12-5.66-1.94-8.69,0.16c-14.97,10.37-32.02,15.11-49.83,15.51
	c-17.65,0.4-34.72-4.08-49.61-13.92c-7.3-4.82-13.74-5.4-21.32-1.75c-4.58,2.21-9.48,3.75-14.23,5.6c-4.59,1.79-6.86,0.08-5.77-4.6
	c1.01-4.32,1.21-7.79-2.96-10.6c-1.67-1.13-0.9-3.09,0.17-4.57c4.49-6.19,8.86-12.47,13.54-18.51
	C243.07,594.36,247.61,596.22,252.91,595.38z"/>
<path class="st15" d="M160.31,284.2c18.54,0.28,19.58-2.88,20.14,18.9c0.2,7.75-1.07,8.69-8.28,7.74
	c-23.24-3.06-44.58,2.82-64.71,14.04c-4.06,2.26-7.68,5.33-11.75,7.58c-4.9,2.71-5.21,6.9-4.29,11.5
	c5.08,25.36,20.9,42.55,42.4,55.37c1.9,1.13,4.12,0.83,6.2,1.16c6.42,1.05,12.45,2.85,15.94,9.12c2.98,5.36,2.26,11.35-2.85,16.15
	c-6.2,5.82-11.01,15.48-22.17,10.36c-8.09-3.72-11.99-13.22-8.65-22.88c1.85-5.35,0.11-6.9-4.12-8.98
	c-30.35-14.95-47.93-39.51-54.21-72.56c-0.64-3.35-0.16-5.6,2.24-7.93c22.02-21.41,48.05-34.46,78.63-38.38
	C150.53,284.66,156.19,283.94,160.31,284.2z"/>
<path class="st15" d="M505.68,214.18c16.59-0.89,32.51,2.32,48.12,7.76c4.06,1.41,6.54,3.59,7.47,7.74
	c6.67,29.55,2.2,56.86-16.32,81.34c-2.3,3.04-4.78,5.98-7.45,8.69c-2.01,2.04-2.7,3.8-1.64,6.73c1.55,4.26,1.3,8.81-0.03,13.17
	c-2.24,7.37-9.22,11.1-16.53,8.76c-3.64-1.16-7.21-2.58-10.68-4.18c-10.05-4.63-12.17-16.13-4.42-24.17
	c4.04-4.19,9.46-6.59,14.96-5.73c5.02,0.79,7.79-1.12,10.21-4.52c13.23-18.58,14.7-39.31,10.89-60.95
	c-0.66-3.74-3.58-5.07-6.81-5.84c-24.74-5.91-48.89-4.62-72.15,6.22c-8.89,4.14-10.23,3.54-10.1-6.34
	c0.25-19.66-3.55-17.59,18.59-24.47c6.65-2.07,13.66-3.21,20.59-4.08C495.41,213.67,500.57,214.18,505.68,214.18z"/>
</svg>
